<?xml version="1.0" encoding="UTF-8"?><svg id="a" xmlns="http://www.w3.org/2000/svg" viewBox="0 0 140 120"><path d="m36.94,71.28c-3.81-30.06,4.93-55.28,37.98-59.93,1.79-.26,3.58-.48,5.38-.65-3.26-.23-6.67-.34-10.22-.34-9.59,0-18.09.81-25.51,2.42-7.42,1.61-13.64,4.33-18.67,8.16-5.03,3.83-8.85,8.87-11.48,15.14-2.63,6.27-3.94,14.01-3.94,23.23s1.31,17.47,3.94,23.92c2.63,6.45,6.45,11.64,11.48,15.56,5.02,3.92,11.25,6.71,18.67,8.37,7.42,1.66,15.92,2.49,25.51,2.49,3.51,0,6.87-.11,10.09-.34-21.79-2.13-39.33-11.68-43.22-38.03Z" fill="#34864d"/><path d="m116.29,66.62v13.25h10.51c-.37,1.16-.76,2.29-1.2,3.36-2.63,6.45-6.45,11.64-11.48,15.56-5.03,3.92-11.25,6.71-18.67,8.37-2.98.67-6.14,1.2-9.45,1.6-17.94-1.99-35.37-7.41-42.66-25.68.58.49,1.19.93,1.85,1.34,5.62,3.46,13.92,5.19,24.89,5.19s19.24-1.73,24.82-5.19c5.22-3.24,8-9.17,8.33-17.78h13.06Zm10.75-26.49c-.43-1.41-.91-2.77-1.45-4.05-2.63-6.27-6.45-11.32-11.48-15.14-5.03-3.82-11.25-6.54-18.67-8.16-2.95-.64-6.06-1.15-9.34-1.54-7.35.79-14.61,2.14-21.5,4.77-10.25,3.92-18.06,11.35-21.83,21.66.74-.69,1.53-1.32,2.4-1.87,5.62-3.6,13.92-5.39,24.89-5.39s19.24,1.8,24.82,5.39c5.29,3.41,8.07,9.27,8.34,17.58h13.05v-13.25h10.75Zm2.49,19.18c0-2.05-.07-4.03-.2-5.93h-13.05v13.25h12.96c.19-2.33.29-4.77.29-7.31Z" fill="#499d65"/></svg>