<svg xmlns="http://www.w3.org/2000/svg" xmlns:xlink="http://www.w3.org/1999/xlink" xmlns:lucid="lucid" width="4686.06" height="4631.79"><g transform="translate(11258.801997183873 -998.2601408916593)" lucid:page-tab-id="0_0"><path d="M-11257.8 2440.27h952.17v496h-952.17z" stroke="#000" stroke-width="2" fill="#fff"/><use xlink:href="#a" transform="matrix(1,0,0,1,-11210.193396937399,2465.0688880817443) translate(0 51.66666666666667)"/><use xlink:href="#b" transform="matrix(1,0,0,1,-11210.193396937399,2465.0688880817443) translate(298.4114583333333 51.66666666666667)"/><use xlink:href="#c" transform="matrix(1,0,0,1,-11210.193396937399,2465.0688880817443) translate(343.359375 51.66666666666667)"/><use xlink:href="#d" transform="matrix(1,0,0,1,-11210.193396937399,2465.0688880817443) translate(533.828125 51.66666666666667)"/><use xlink:href="#e" transform="matrix(1,0,0,1,-11210.193396937399,2465.0688880817443) translate(0 129.10416666666669)"/><use xlink:href="#f" transform="matrix(1,0,0,1,-11210.193396937399,2465.0688880817443) translate(282.00520833333337 129.10416666666669)"/><path d="M-11257.8 2306.54h952.17v135.3h-952.17z" stroke="#000" stroke-width="2" fill="#1071e5"/><use xlink:href="#g" transform="matrix(1,0,0,1,-11210.193396937399,2313.3033991175153) translate(638.9661458333333 83.64583333333334)"/><path d="M-11257.8 2306.54h146.68v133.73h-146.68z" stroke="#000" stroke-width="2" fill="#ffe342"/><use xlink:href="#h" transform="matrix(1,0,0,1,-11250.468022400466,2313.2245386309337) translate(51.13433159722223 88.31944444444441)"/><path d="M-10780.24 3664.24h-2.95V3336.6h2.96zm0-376.05h-2.95v-349.4l2.96-.02z" stroke="#3a414a" stroke-width=".05" fill="#3a414a"/><path d="M-10780.24 2938.82h-2.95v-1.54h2.96z" fill="#3a414a"/><path stroke="#3a414a" stroke-width=".05" fill="#3a414a"/><path d="M-10781.72 3684.5l-10.83-18.76h21.67z" fill="#3a414a"/><path d="M-10781.72 3687.45l-13.38-23.2h26.77zm-8.28-20.24l8.28 14.35 8.28-14.34z" stroke="#3a414a" stroke-width=".05" fill="#3a414a"/><use xlink:href="#i" transform="matrix(1,0,0,1,-10816.979666594123,3288.194457531856) translate(0 38.75)"/><path d="M-9434.72 2428.82h945.92v507.46h-945.92z" stroke="#000" stroke-width="2" fill="#fff"/><use xlink:href="#j" transform="matrix(1,0,0,1,-9387.423491971835,2454.1918849444523) translate(0 51.66666666666667)"/><use xlink:href="#k" transform="matrix(1,0,0,1,-9387.423491971835,2454.1918849444523) translate(51.796875 51.66666666666667)"/><use xlink:href="#l" transform="matrix(1,0,0,1,-9387.423491971835,2454.1918849444523) translate(304.01041666666663 51.66666666666667)"/><use xlink:href="#m" transform="matrix(1,0,0,1,-9387.423491971835,2454.1918849444523) translate(389.24479166666663 51.66666666666667)"/><use xlink:href="#n" transform="matrix(1,0,0,1,-9387.423491971835,2454.1918849444523) translate(608.59375 51.66666666666667)"/><use xlink:href="#o" transform="matrix(1,0,0,1,-9387.423491971835,2454.1918849444523) translate(0 129.10416666666669)"/><use xlink:href="#p" transform="matrix(1,0,0,1,-9387.423491971835,2454.1918849444523) translate(226.87499999999997 129.10416666666669)"/><use xlink:href="#q" transform="matrix(1,0,0,1,-9387.423491971835,2454.1918849444523) translate(551.4322916666666 129.10416666666669)"/><use xlink:href="#r" transform="matrix(1,0,0,1,-9387.423491971835,2454.1918849444523) translate(740.2604166666666 129.10416666666669)"/><use xlink:href="#s" transform="matrix(1,0,0,1,-9387.423491971835,2454.1918849444523) translate(804.1666666666666 129.10416666666669)"/><use xlink:href="#t" transform="matrix(1,0,0,1,-9387.423491971835,2454.1918849444523) translate(0 206.54166666666669)"/><path d="M-9434.72 2306.54h952.17v135.3h-952.17z" stroke="#000" stroke-width="2" fill="#1071e5"/><use xlink:href="#u" transform="matrix(1,0,0,1,-9387.11081118452,2313.3033991175157) translate(594.2395833333333 83.64583333333334)"/><path d="M-9434.72 2306.54h146.68v133.73h-146.68z" stroke="#000" stroke-width="2" fill="#ffe342"/><use xlink:href="#h" transform="matrix(1,0,0,1,-9427.385436647588,2313.224538630934) translate(51.13433159722223 88.31944444444441)"/><path d="M-9434.72 3823.8h952.17v494.45h-952.17z" stroke="#000" stroke-width="2" fill="#fff"/><use xlink:href="#j" transform="matrix(1,0,0,1,-9387.110811184522,3848.5317656044826) translate(0 51.66666666666667)"/><use xlink:href="#o" transform="matrix(1,0,0,1,-9387.110811184522,3848.5317656044826) translate(51.796875 51.66666666666667)"/><use xlink:href="#v" transform="matrix(1,0,0,1,-9387.110811184522,3848.5317656044826) translate(278.671875 51.66666666666667)"/><use xlink:href="#w" transform="matrix(1,0,0,1,-9387.110811184522,3848.5317656044826) translate(458.2552083333333 51.66666666666667)"/><use xlink:href="#x" transform="matrix(1,0,0,1,-9387.110811184522,3848.5317656044826) translate(524.9739583333333 51.66666666666667)"/><use xlink:href="#y" transform="matrix(1,0,0,1,-9387.110811184522,3848.5317656044826) translate(569.9218749999999 51.66666666666667)"/><use xlink:href="#z" transform="matrix(1,0,0,1,-9387.110811184522,3848.5317656044826) translate(780.8593749999999 51.66666666666667)"/><use xlink:href="#A" transform="matrix(1,0,0,1,-9387.110811184522,3848.5317656044826) translate(0 129.10416666666669)"/><use xlink:href="#B" transform="matrix(1,0,0,1,-9387.110811184522,3848.5317656044826) translate(199.609375 129.10416666666669)"/><use xlink:href="#r" transform="matrix(1,0,0,1,-9387.110811184522,3848.5317656044826) translate(436.6927083333333 129.10416666666669)"/><use xlink:href="#x" transform="matrix(1,0,0,1,-9387.110811184522,3848.5317656044826) translate(500.5989583333333 129.10416666666669)"/><use xlink:href="#t" transform="matrix(1,0,0,1,-9387.110811184522,3848.5317656044826) translate(545.546875 129.10416666666669)"/><path d="M-9434.72 3688.5h952.17v135.3h-952.17z" stroke="#000" stroke-width="2" fill="#1071e5"/><use xlink:href="#C" transform="matrix(1,0,0,1,-9387.110811184522,3695.2679273951985) translate(460.3203125 83.64583333333334)"/><use xlink:href="#D" transform="matrix(1,0,0,1,-9387.110811184522,3695.2679273951985) translate(712.9895833333334 83.64583333333334)"/><path d="M-9434.72 3688.5h146.68v133.73h-146.68z" stroke="#000" stroke-width="2" fill="#ffe342"/><use xlink:href="#E" transform="matrix(1,0,0,1,-9427.38543664759,3695.1890669086174) translate(50.21202256944445 88.31944444444441)"/><path d="M-9434.72 5134.6h945.92v494.45h-945.92z" stroke="#000" stroke-width="2" fill="#fff"/><use xlink:href="#F" transform="matrix(1,0,0,1,-9387.423491971836,5159.328637165109) translate(0 51.66666666666667)"/><use xlink:href="#G" transform="matrix(1,0,0,1,-9387.423491971836,5159.328637165109) translate(248.25520833333331 51.66666666666667)"/><use xlink:href="#H" transform="matrix(1,0,0,1,-9387.423491971836,5159.328637165109) translate(385.8333333333333 51.66666666666667)"/><use xlink:href="#I" transform="matrix(1,0,0,1,-9387.423491971836,5159.328637165109) translate(0 129.10416666666669)"/><use xlink:href="#J" transform="matrix(1,0,0,1,-9387.423491971836,5159.328637165109) translate(107.44791666666667 129.10416666666669)"/><use xlink:href="#K" transform="matrix(1,0,0,1,-9387.423491971836,5159.328637165109) translate(186.19791666666669 129.10416666666669)"/><use xlink:href="#L" transform="matrix(1,0,0,1,-9387.423491971836,5159.328637165109) translate(336.3541666666667 129.10416666666669)"/><use xlink:href="#M" transform="matrix(1,0,0,1,-9387.423491971836,5159.328637165109) translate(445.46875 129.10416666666669)"/><use xlink:href="#N" transform="matrix(1,0,0,1,-9387.423491971836,5159.328637165109) translate(566.6666666666666 129.10416666666669)"/><use xlink:href="#O" transform="matrix(1,0,0,1,-9387.423491971836,5159.328637165109) translate(755.7552083333333 129.10416666666669)"/><use xlink:href="#P" transform="matrix(1,0,0,1,-9387.423491971836,5159.328637165109) translate(0 206.54166666666669)"/><use xlink:href="#Q" transform="matrix(1,0,0,1,-9387.423491971836,5159.328637165109) translate(276.5364583333333 206.54166666666669)"/><use xlink:href="#R" transform="matrix(1,0,0,1,-9387.423491971836,5159.328637165109) translate(371.7708333333333 206.54166666666669)"/><path d="M-9434.72 4999.3h952.17v135.3h-952.17z" stroke="#000" stroke-width="2" fill="#1071e5"/><use xlink:href="#S" transform="matrix(1,0,0,1,-9387.110811184522,5006.064798955825) translate(152.24739583333326 83.64583333333334)"/><use xlink:href="#T" transform="matrix(1,0,0,1,-9387.110811184522,5006.064798955825) translate(400.2942708333333 83.64583333333334)"/><use xlink:href="#U" transform="matrix(1,0,0,1,-9387.110811184522,5006.064798955825) translate(556.3489583333333 83.64583333333334)"/><path d="M-9434.72 4999.3h146.68v133.73h-146.68z" stroke="#000" stroke-width="2" fill="#ffe342"/><use xlink:href="#h" transform="matrix(1,0,0,1,-9427.38543664759,5005.985938469243) translate(51.13433159722223 88.31944444444441)"/><path d="M-7525.9 2440.27h952.16v496h-952.17z" stroke="#000" stroke-width="2" fill="#fff"/><use xlink:href="#j" transform="matrix(1,0,0,1,-7478.305238771033,2465.0688880817443) translate(0 51.66666666666667)"/><use xlink:href="#V" transform="matrix(1,0,0,1,-7478.305238771033,2465.0688880817443) translate(51.796875 51.66666666666667)"/><use xlink:href="#w" transform="matrix(1,0,0,1,-7478.305238771033,2465.0688880817443) translate(310.49479166666663 51.66666666666667)"/><use xlink:href="#W" transform="matrix(1,0,0,1,-7478.305238771033,2465.0688880817443) translate(377.21354166666663 51.66666666666667)"/><use xlink:href="#X" transform="matrix(1,0,0,1,-7478.305238771033,2465.0688880817443) translate(567.1614583333333 51.66666666666667)"/><use xlink:href="#Y" transform="matrix(1,0,0,1,-7478.305238771033,2465.0688880817443) translate(0 129.10416666666669)"/><use xlink:href="#l" transform="matrix(1,0,0,1,-7478.305238771033,2465.0688880817443) translate(226.82291666666669 129.10416666666669)"/><use xlink:href="#Z" transform="matrix(1,0,0,1,-7478.305238771033,2465.0688880817443) translate(312.0572916666667 129.10416666666669)"/><use xlink:href="#aa" transform="matrix(1,0,0,1,-7478.305238771033,2465.0688880817443) translate(475.59895833333337 129.10416666666669)"/><use xlink:href="#ab" transform="matrix(1,0,0,1,-7478.305238771033,2465.0688880817443) translate(584.7135416666667 129.10416666666669)"/><use xlink:href="#ac" transform="matrix(1,0,0,1,-7478.305238771033,2465.0688880817443) translate(0 206.54166666666669)"/><path d="M-7525.9 2306.54h952.16v135.3h-952.17z" stroke="#000" stroke-width="2" fill="#1071e5"/><use xlink:href="#ad" transform="matrix(1,0,0,1,-7478.305238771033,2313.303399117516) translate(631.4466145833333 83.64583333333334)"/><path d="M-7525.9 2306.54h146.67v133.73h-146.68z" stroke="#000" stroke-width="2" fill="#ffe342"/><use xlink:href="#h" transform="matrix(1,0,0,1,-7518.5798642341015,2313.2245386309346) translate(51.13433159722223 88.31944444444441)"/><path d="M-7525.9 1133h952.16v496h-952.17z" stroke="#000" stroke-width="2" fill="#fff"/><use xlink:href="#j" transform="matrix(1,0,0,1,-7478.305238771031,1157.7909910104781) translate(0 51.66666666666667)"/><use xlink:href="#v" transform="matrix(1,0,0,1,-7478.305238771031,1157.7909910104781) translate(51.796875 51.66666666666667)"/><use xlink:href="#w" transform="matrix(1,0,0,1,-7478.305238771031,1157.7909910104781) translate(231.38020833333331 51.66666666666667)"/><use xlink:href="#ae" transform="matrix(1,0,0,1,-7478.305238771031,1157.7909910104781) translate(298.0989583333333 51.66666666666667)"/><use xlink:href="#af" transform="matrix(1,0,0,1,-7478.305238771031,1157.7909910104781) translate(532.1875 51.66666666666667)"/><use xlink:href="#ag" transform="matrix(1,0,0,1,-7478.305238771031,1157.7909910104781) translate(0 129.10416666666669)"/><use xlink:href="#ah" transform="matrix(1,0,0,1,-7478.305238771031,1157.7909910104781) translate(197.63020833333331 129.10416666666669)"/><use xlink:href="#ai" transform="matrix(1,0,0,1,-7478.305238771031,1157.7909910104781) translate(274.08854166666663 129.10416666666669)"/><use xlink:href="#aj" transform="matrix(1,0,0,1,-7478.305238771031,1157.7909910104781) translate(468.125 129.10416666666669)"/><use xlink:href="#ak" transform="matrix(1,0,0,1,-7478.305238771031,1157.7909910104781) translate(535.1822916666666 129.10416666666669)"/><path d="M-7525.9 999.26h952.16v135.3h-952.17z" stroke="#000" stroke-width="2" fill="#1071e5"/><g><use xlink:href="#al" transform="matrix(1,0,0,1,-7478.305238771031,1006.0255020462503) translate(123.76432291666674 83.64583333333334)"/><use xlink:href="#am" transform="matrix(1,0,0,1,-7478.305238771031,1006.0255020462503) translate(417.4817708333334 83.64583333333334)"/></g><path d="M-7525.9 999.26h146.67V1133h-146.68z" stroke="#000" stroke-width="2" fill="#ffe342"/><g><use xlink:href="#h" transform="matrix(1,0,0,1,-7518.5798642341,1005.9466415596686) translate(51.13433159722223 88.31944444444441)"/></g><path d="M-9905.44 2689.75h-397.7v-2.95h397.7zm446.46-5.72h-375.93v-2.95H-9459z" stroke="#3a414a" stroke-width=".05" fill="#3a414a"/><path d="M-10303.1 2689.75h-1.53v-2.95h1.54z" fill="#3a414a"/><path stroke="#3a414a" stroke-width=".05" fill="#3a414a"/><path d="M-9438.72 2682.55l-18.76 10.84v-21.68z" fill="#3a414a"/><path d="M-9435.77 2682.55l-23.2 13.4v-26.8zm-20.24 8.28l14.33-8.28-14.34-8.28z" stroke="#3a414a" stroke-width=".05" fill="#3a414a"/><g><use xlink:href="#i" transform="matrix(1,0,0,1,-9905.438373682435,2661.2148309128365) translate(0 38.75)"/></g><path d="M-10088.95 4072.5h-214.18v-2.95h214.18zm629.97 0h-322.55v-2.95h322.55z" stroke="#3a414a" stroke-width=".05" fill="#3a414a"/><path d="M-10303.1 4072.5h-1.53v-2.95h1.54z" fill="#3a414a"/><path stroke="#3a414a" stroke-width=".05" fill="#3a414a"/><path d="M-9438.72 4071.03l-18.76 10.83v-21.66z" fill="#3a414a"/><path d="M-9435.77 4071.03l-23.2 13.4v-26.8zm-20.24 8.28l14.33-8.27-14.34-8.28z" stroke="#3a414a" stroke-width=".05" fill="#3a414a"/><g><use xlink:href="#an" transform="matrix(1,0,0,1,-10088.952894971682,4046.8303333029953) translate(0 38.75)"/><use xlink:href="#ao" transform="matrix(1,0,0,1,-10088.952894971682,4046.8303333029953) translate(222.9296875 38.75)"/></g><path d="M-8957.16 4980.8h-2.95v-297.83h2.94zm0-346.23h-2.95v-313.82h2.94z" stroke="#3a414a" stroke-width=".05" fill="#3a414a"/><path d="M-8957.16 4320.8h-2.95v-1.55h2.94z" fill="#3a414a"/><path stroke="#3a414a" stroke-width=".05" fill="#3a414a"/><path d="M-8958.63 4995.3l-7.5-13h15z" fill="#3a414a"/><path d="M-8958.63 4998.25l-10.06-17.42h20.12zm-4.95-14.47l4.95 8.57 4.94-8.57z" stroke="#3a414a" stroke-width=".05" fill="#3a414a"/><g><use xlink:href="#i" transform="matrix(1,0,0,1,-8993.897080841247,4634.575157316829) translate(0 38.75)"/></g><path d="M-8957.16 3686h-2.95v-349.4h2.94zm-3.13-397.8h-2.94v-333.42h2.95z" stroke="#3a414a" stroke-width=".05" fill="#3a414a"/><path d="M-8957.16 3687.5h-2.95v-1.54h2.94z" fill="#3a414a"/><path stroke="#3a414a" stroke-width=".05" fill="#3a414a"/><path d="M-8954.26 2953.28h-15l7.5-13z" fill="#3a414a"/><path d="M-8951.7 2954.75h-20.1l10.04-17.4zm-15-2.95h9.9l-4.96-8.57z" stroke="#3a414a" stroke-width=".05" fill="#3a414a"/><g><use xlink:href="#ap" transform="matrix(1,0,0,1,-9062.823766027823,3288.194457538545) translate(0 38.75)"/><use xlink:href="#aq" transform="matrix(1,0,0,1,-9062.823766027823,3288.194457538545) translate(166.46484375 38.75)"/></g><path d="M-7550.18 2686.8v2.95h-350.17v-2.95zm-936.12-2.77v-2.95h371.93v2.95z" stroke="#3a414a" stroke-width=".05" fill="#3a414a"/><path d="M-8486.26 2684.03h-1.54v-2.95h1.54z" fill="#3a414a"/><path stroke="#3a414a" stroke-width=".05" fill="#3a414a"/><path d="M-7529.9 2688.28l-18.78 10.83v-21.66z" fill="#3a414a"/><path d="M-7526.96 2688.28l-23.2 13.38v-26.77zm-20.24 8.27l14.34-8.27-14.34-8.28z" stroke="#3a414a" stroke-width=".05" fill="#3a414a"/><g><use xlink:href="#ar" transform="matrix(1,0,0,1,-8114.369149474252,2661.214830912838) translate(0 38.75)"/></g><path d="M-8331.37 1382.47h-603.2l-3.6.3-3.42.8-3.26 1.36-3 1.85-2.7 2.3-2.3 2.68-1.84 3-1.35 3.28-.83 3.44-.28 3.58v877.2h-2.95v-877.32l.3-3.93.93-3.88 1.53-3.7 2.1-3.4 2.6-3.04 3.03-2.6 3.4-2.08 3.7-1.53 3.88-.94 3.93-.3h603.33zm802.96 0h-588.94v-2.95h588.93z" stroke="#3a414a" stroke-width=".05" fill="#3a414a"/><path d="M-7526.9 1382.47h-1.55v-2.95h1.54z" fill="#3a414a"/><path stroke="#3a414a" stroke-width=".05" fill="#3a414a"/><path d="M-8958.63 2302.54l-10.84-18.77h21.67z" fill="#3a414a"/><path d="M-8958.63 2305.5l-13.4-23.2h26.78zm-8.28-20.25l8.27 14.34 8.27-14.35z" stroke="#3a414a" stroke-width=".05" fill="#3a414a"/><g><use xlink:href="#ar" transform="matrix(1,0,0,1,-8331.367067103301,1356.799303088228) translate(0 38.75)"/></g><path d="M-7049.83 1631.5v650.77" stroke="#3a414a" stroke-width="3" fill="none"/><path d="M-7048.35 1631.55h-2.95V1630h2.95z" stroke="#3a414a" stroke-width=".05" fill="#3a414a"/><path d="M-7049.83 2302.54l-10.83-18.77h21.66z" stroke="#3a414a" stroke-width="3" fill="#3a414a"/><path d="M-7834.2 4072.5h-624.08v-2.95h624.07zm785.85-25.4l-.3 3.9-.95 3.9-1.52 3.7-2.1 3.4-2.6 3.05-3.03 2.6-3.4 2.08-3.7 1.53-3.9.93-3.92.3h-591.26v-2.95h591.14l3.6-.28 3.43-.82 3.27-1.36 3-1.85 2.7-2.3 2.3-2.68 1.84-3.02 1.35-3.26.8-3.45.3-3.58V2938.8l2.95-.02z" stroke="#3a414a" stroke-width=".05" fill="#3a414a"/><path d="M-7048.35 2938.82h-2.95v-1.54h2.95z" fill="#3a414a"/><path stroke="#3a414a" stroke-width=".05" fill="#3a414a"/><path d="M-8459.78 4081.86l-18.77-10.83 18.77-10.83z" fill="#3a414a"/><path d="M-8458.3 4084.42l-23.2-13.4 23.2-13.38zm-17.3-13.4l14.34 8.3v-16.57z" stroke="#3a414a" stroke-width=".05" fill="#3a414a"/><g><use xlink:href="#as" transform="matrix(1,0,0,1,-7834.214376735469,4046.8303333029953) translate(0 38.75)"/></g><path d="M-11257.8 3823.8h952.17v494.45h-952.17z" stroke="#000" stroke-width="2" fill="#fff"/><g><use xlink:href="#at" transform="matrix(1,0,0,1,-11210.193396937399,3848.5317656044836) translate(0 51.66666666666667)"/><use xlink:href="#au" transform="matrix(1,0,0,1,-11210.193396937399,3848.5317656044836) translate(270.78125 51.66666666666667)"/><use xlink:href="#av" transform="matrix(1,0,0,1,-11210.193396937399,3848.5317656044836) translate(580.7291666666667 51.66666666666667)"/><use xlink:href="#aw" transform="matrix(1,0,0,1,-11210.193396937399,3848.5317656044836) translate(814.0885416666667 51.66666666666667)"/><use xlink:href="#ax" transform="matrix(1,0,0,1,-11210.193396937399,3848.5317656044836) translate(0 129.10416666666669)"/><use xlink:href="#L" transform="matrix(1,0,0,1,-11210.193396937399,3848.5317656044836) translate(188.54166666666666 129.10416666666669)"/><use xlink:href="#b" transform="matrix(1,0,0,1,-11210.193396937399,3848.5317656044836) translate(297.65625 129.10416666666669)"/><use xlink:href="#e" transform="matrix(1,0,0,1,-11210.193396937399,3848.5317656044836) translate(342.6041666666667 129.10416666666669)"/><use xlink:href="#ay" transform="matrix(1,0,0,1,-11210.193396937399,3848.5317656044836) translate(624.609375 129.10416666666669)"/></g><path d="M-11257.8 3688.5h952.17v135.3h-952.17z" stroke="#000" stroke-width="2" fill="#1071e5"/><g><use xlink:href="#az" transform="matrix(1,0,0,1,-11210.193396937399,3695.267927395198) translate(535.5481770833333 83.64583333333334)"/></g><path d="M-11257.8 3688.5h146.68v133.73h-146.68z" stroke="#000" stroke-width="2" fill="#ffe342"/><g><use xlink:href="#h" transform="matrix(1,0,0,1,-11250.468022400466,3695.1890669086165) translate(51.13433159722223 88.31944444444441)"/></g><defs><path d="M180 0v-1490h510c348 0 508 194 508 460 0 198-88 351-276 417L1256 0h-220L726-579c-117 2-238 0-356 1V0H180zm190-747h312c235 0 327-108 327-283 0-177-92-293-329-293H370v576" id="aA"/><path d="M628 24c-324 0-524-230-524-574 0-343 198-582 503-582 237 0 487 146 487 559v75H286c9 234 145 362 343 362 132 0 231-58 273-172l174 48C1024-91 857 24 628 24zM287-650h624c-17-190-120-322-304-322-192 0-309 151-320 322" id="aB"/><path d="M158 418v-1536h174v179h20c37-59 106-193 324-193 279 0 474 222 474 576 0 356-194 580-473 580-213 0-288-135-325-197h-14v591H158zm492-555c209 0 317-186 317-421 0-232-105-413-317-413-206 0-314 166-314 413 0 249 111 421 314 421" id="aC"/><path d="M158 0v-1118h174v172h12c41-113 157-188 290-188 26 0 70 2 91 3v181c-11-2-60-10-108-10-161 0-279 109-279 260V0H158" id="aD"/><path d="M538 24C308 24 148-78 108-271l171-41c32 123 123 178 257 178 156 0 256-77 256-169 0-77-54-128-164-154l-186-44c-203-48-300-148-300-305 0-192 176-326 414-326 230 0 351 112 402 269l-163 42c-31-80-94-158-238-158-133 0-233 69-233 162 0 83 57 129 188 160l169 40c203 48 298 149 298 302 0 196-179 339-441 339" id="aE"/><path d="M338-670V0H158v-1118h173l1 207c72-158 192-221 342-221 226 0 378 139 378 422V0H872v-695c0-172-96-275-252-275-161 0-282 109-282 300" id="aF"/><path d="M598-1118v154H368v674c0 100 37 144 132 144 23 0 62-6 92-12L629-6c-37 13-88 20-134 20-193 0-307-107-307-290v-688H20v-154h168v-266h180v266h230" id="aG"/><g id="a"><use transform="matrix(0.026041666666666668,0,0,0.026041666666666668,0,0)" xlink:href="#aA"/><use transform="matrix(0.026041666666666668,0,0,0.026041666666666668,33.54166666666667,0)" xlink:href="#aB"/><use transform="matrix(0.026041666666666668,0,0,0.026041666666666668,64.63541666666667,0)" xlink:href="#aC"/><use transform="matrix(0.026041666666666668,0,0,0.026041666666666668,97.29166666666667,0)" xlink:href="#aD"/><use transform="matrix(0.026041666666666668,0,0,0.026041666666666668,116.484375,0)" xlink:href="#aB"/><use transform="matrix(0.026041666666666668,0,0,0.026041666666666668,147.578125,0)" xlink:href="#aE"/><use transform="matrix(0.026041666666666668,0,0,0.026041666666666668,175.72916666666666,0)" xlink:href="#aB"/><use transform="matrix(0.026041666666666668,0,0,0.026041666666666668,206.82291666666666,0)" xlink:href="#aF"/><use transform="matrix(0.026041666666666668,0,0,0.026041666666666668,238.3333333333333,0)" xlink:href="#aG"/><use transform="matrix(0.026041666666666668,0,0,0.026041666666666668,255.26041666666663,0)" xlink:href="#aE"/></g><path d="M471 26C259 26 90-98 90-318c0-256 228-303 435-329 202-27 287-16 287-108 0-139-79-219-234-219-161 0-248 86-283 164l-173-57c86-203 278-265 451-265 150 0 419 46 419 395V0H815v-152h-12C765-73 660 26 471 26zm31-159c199 0 310-134 310-271v-155c-30 35-226 55-295 64-131 17-246 59-246 186 0 116 97 176 231 176" id="aH"/><use transform="matrix(0.026041666666666668,0,0,0.026041666666666668,0,0)" xlink:href="#aH" id="b"/><path d="M613 24c-304 0-509-231-509-576 0-350 205-580 509-580 305 0 511 230 511 580 0 345-206 576-511 576zm0-161c226 0 329-195 329-415 0-222-103-419-329-419-223 0-326 196-326 419 0 220 103 415 326 415" id="aI"/><g id="c"><use transform="matrix(0.026041666666666668,0,0,0.026041666666666668,0,0)" xlink:href="#aC"/><use transform="matrix(0.026041666666666668,0,0,0.026041666666666668,32.65625,0)" xlink:href="#aB"/><use transform="matrix(0.026041666666666668,0,0,0.026041666666666668,63.75,0)" xlink:href="#aD"/><use transform="matrix(0.026041666666666668,0,0,0.026041666666666668,83.828125,0)" xlink:href="#aE"/><use transform="matrix(0.026041666666666668,0,0,0.026041666666666668,111.97916666666667,0)" xlink:href="#aI"/><use transform="matrix(0.026041666666666668,0,0,0.026041666666666668,143.95833333333334,0)" xlink:href="#aF"/></g><path d="M613 24c-304 0-509-231-509-576 0-350 205-580 509-580 216 0 392 114 453 309l-173 49c-33-115-133-197-280-197-223 0-326 196-326 419 0 220 103 415 326 415 150 0 252-85 285-206l172 49C1010-95 832 24 613 24" id="aJ"/><path d="M158 0v-1118h180V0H158zm91-1301c-68 0-125-53-125-119s57-119 125-119c69 0 126 53 126 119s-57 119-126 119" id="aK"/><path d="M481 0L54-1118h197c107 314 236 620 325 951 87-331 217-637 324-951h197L670 0H481" id="aL"/><path d="M611 442c-248 0-391-105-460-228l146-94c47 65 117 165 314 165 178 0 307-82 307-266v-224h-17C863-141 792-18 576-18c-268 0-472-195-472-546 0-346 197-568 476-568 216 0 288 133 326 193h17v-179h175V29c0 289-215 413-487 413zm-5-620c203 0 314-146 314-390 0-237-108-403-314-403-213 0-319 180-319 403 0 230 109 390 319 390" id="aM"/><g id="d"><use transform="matrix(0.026041666666666668,0,0,0.026041666666666668,0,0)" xlink:href="#aD"/><use transform="matrix(0.026041666666666668,0,0,0.026041666666666668,19.192708333333332,0)" xlink:href="#aB"/><use transform="matrix(0.026041666666666668,0,0,0.026041666666666668,50.28645833333333,0)" xlink:href="#aJ"/><use transform="matrix(0.026041666666666668,0,0,0.026041666666666668,80.75520833333333,0)" xlink:href="#aB"/><use transform="matrix(0.026041666666666668,0,0,0.026041666666666668,111.84895833333334,0)" xlink:href="#aK"/><use transform="matrix(0.026041666666666668,0,0,0.026041666666666668,124.765625,0)" xlink:href="#aL"/><use transform="matrix(0.026041666666666668,0,0,0.026041666666666668,154.73958333333334,0)" xlink:href="#aK"/><use transform="matrix(0.026041666666666668,0,0,0.026041666666666668,167.65625,0)" xlink:href="#aF"/><use transform="matrix(0.026041666666666668,0,0,0.026041666666666668,199.16666666666666,0)" xlink:href="#aM"/></g><path d="M338-670V0H158v-1490h180v566c73-149 190-208 336-208 226 0 379 139 379 422V0H872v-695c0-172-96-275-252-275-161 0-282 109-282 300" id="aN"/><path d="M338-1490V0H158v-1490h180" id="aO"/><g id="e"><use transform="matrix(0.026041666666666668,0,0,0.026041666666666668,0,0)" xlink:href="#aN"/><use transform="matrix(0.026041666666666668,0,0,0.026041666666666668,31.536458333333336,0)" xlink:href="#aB"/><use transform="matrix(0.026041666666666668,0,0,0.026041666666666668,63.15104166666667,0)" xlink:href="#aH"/><use transform="matrix(0.026041666666666668,0,0,0.026041666666666668,93.09895833333334,0)" xlink:href="#aO"/><use transform="matrix(0.026041666666666668,0,0,0.026041666666666668,106.796875,0)" xlink:href="#aG"/><use transform="matrix(0.026041666666666668,0,0,0.026041666666666668,124.2447916666667,0)" xlink:href="#aN"/><use transform="matrix(0.026041666666666668,0,0,0.026041666666666668,155.78125000000003,0)" xlink:href="#aJ"/><use transform="matrix(0.026041666666666668,0,0,0.026041666666666668,186.77083333333337,0)" xlink:href="#aH"/><use transform="matrix(0.026041666666666668,0,0,0.026041666666666668,216.71875,0)" xlink:href="#aD"/><use transform="matrix(0.026041666666666668,0,0,0.026041666666666668,235.9114583333334,0)" xlink:href="#aB"/></g><g id="f"><use transform="matrix(0.026041666666666668,0,0,0.026041666666666668,0,0)" xlink:href="#aE"/><use transform="matrix(0.026041666666666668,0,0,0.026041666666666668,28.151041666666668,0)" xlink:href="#aB"/><use transform="matrix(0.026041666666666668,0,0,0.026041666666666668,59.24479166666667,0)" xlink:href="#aD"/><use transform="matrix(0.026041666666666668,0,0,0.026041666666666668,80.15625,0)" xlink:href="#aL"/><use transform="matrix(0.026041666666666668,0,0,0.026041666666666668,110.13020833333334,0)" xlink:href="#aK"/><use transform="matrix(0.026041666666666668,0,0,0.026041666666666668,123.046875,0)" xlink:href="#aJ"/><use transform="matrix(0.026041666666666668,0,0,0.026041666666666668,153.515625,0)" xlink:href="#aB"/><use transform="matrix(0.026041666666666668,0,0,0.026041666666666668,184.609375,0)" xlink:href="#aE"/></g><path fill="#fff" d="M180 0v-1490h510c348 0 508 209 508 474 0 266-160 477-507 477H370V0H180zm190-706h312c236 0 327-133 327-310 0-176-91-307-329-307H370v617" id="aP"/><path fill="#fff" d="M471 26C259 26 90-98 90-318c0-256 228-303 435-329 202-27 287-16 287-108 0-139-79-219-234-219-161 0-248 86-283 164l-173-57c86-203 278-265 451-265 150 0 419 46 419 395V0H815v-152h-12C765-73 660 26 471 26zm31-159c199 0 310-134 310-271v-155c-30 35-226 55-295 64-131 17-246 59-246 186 0 116 97 176 231 176" id="aQ"/><path fill="#fff" d="M598-1118v154H368v674c0 100 37 144 132 144 23 0 62-6 92-12L629-6c-37 13-88 20-134 20-193 0-307-107-307-290v-688H20v-154h168v-266h180v266h230" id="aR"/><path fill="#fff" d="M158 0v-1118h180V0H158zm91-1301c-68 0-125-53-125-119s57-119 125-119c69 0 126 53 126 119s-57 119-126 119" id="aS"/><path fill="#fff" d="M628 24c-324 0-524-230-524-574 0-343 198-582 503-582 237 0 487 146 487 559v75H286c9 234 145 362 343 362 132 0 231-58 273-172l174 48C1024-91 857 24 628 24zM287-650h624c-17-190-120-322-304-322-192 0-309 151-320 322" id="aT"/><path fill="#fff" d="M338-670V0H158v-1118h173l1 207c72-158 192-221 342-221 226 0 378 139 378 422V0H872v-695c0-172-96-275-252-275-161 0-282 109-282 300" id="aU"/><g id="g"><use transform="matrix(0.032552083333333336,0,0,0.032552083333333336,0,0)" xlink:href="#aP"/><use transform="matrix(0.032552083333333336,0,0,0.032552083333333336,42.578125,0)" xlink:href="#aQ"/><use transform="matrix(0.032552083333333336,0,0,0.032552083333333336,80.01302083333334,0)" xlink:href="#aR"/><use transform="matrix(0.032552083333333336,0,0,0.032552083333333336,101.82291666666669,0)" xlink:href="#aS"/><use transform="matrix(0.032552083333333336,0,0,0.032552083333333336,117.96875000000003,0)" xlink:href="#aT"/><use transform="matrix(0.032552083333333336,0,0,0.032552083333333336,156.83593750000003,0)" xlink:href="#aU"/><use transform="matrix(0.032552083333333336,0,0,0.032552083333333336,196.22395833333337,0)" xlink:href="#aR"/></g><path d="M653-1490V0H466v-1314h-10L96-1047v-204l324-239h233" id="aV"/><use transform="matrix(0.0368923611111111,0,0,0.0368923611111111,0,0)" xlink:href="#aV" id="h"/><path fill="#333" d="M428-647V0H128v-1490h294v586c65-146 175-228 341-228 232 0 385 159 385 421V0H847v-659c0-139-76-222-202-222-128 0-217 86-217 234" id="aW"/><path fill="#333" d="M440 22C227 22 68-92 68-313c0-250 202-322 422-343 195-21 271-24 271-105 0-95-63-149-175-149-116 0-187 57-211 129l-275-46c57-194 237-305 487-305 240 0 474 108 474 379V0H777v-155h-10C713-51 605 22 440 22zm85-211c140 0 238-93 238-211v-121c-37 26-156 42-222 51-111 16-185 59-185 149 0 87 70 132 169 132" id="aX"/><path fill="#333" d="M572 22C302 22 117-98 78-306l279-48c29 105 101 156 224 156 114 0 185-48 185-115 0-118-228-130-337-155-215-49-322-150-322-317 0-215 187-347 470-347 265 0 424 116 466 298l-266 47c-24-76-87-130-196-130-98 0-174 46-174 113 0 56 38 95 144 117l201 40c216 44 320 143 320 302 0 220-207 367-500 367" id="aY"/><g id="i"><use transform="matrix(0.01953125,0,0,0.01953125,0,0)" xlink:href="#aW"/><use transform="matrix(0.01953125,0,0,0.01953125,24.90234375,0)" xlink:href="#aX"/><use transform="matrix(0.01953125,0,0,0.01953125,48.125,0)" xlink:href="#aY"/></g><path d="M52 0l541-1490h220L1361 0h-200l-149-416H398L254 0H52zm404-582h497c-103-290-145-390-251-756-108 377-145 460-246 756" id="aZ"/><use transform="matrix(0.026041666666666668,0,0,0.026041666666666668,0,0)" xlink:href="#aZ" id="j"/><g id="k"><use transform="matrix(0.026041666666666668,0,0,0.026041666666666668,0,0)" xlink:href="#aJ"/><use transform="matrix(0.026041666666666668,0,0,0.026041666666666668,30.46875,0)" xlink:href="#aI"/><use transform="matrix(0.026041666666666668,0,0,0.026041666666666668,62.44791666666667,0)" xlink:href="#aF"/><use transform="matrix(0.026041666666666668,0,0,0.026041666666666668,93.95833333333334,0)" xlink:href="#aG"/><use transform="matrix(0.026041666666666668,0,0,0.026041666666666668,111.6666666666667,0)" xlink:href="#aH"/><use transform="matrix(0.026041666666666668,0,0,0.026041666666666668,141.61458333333334,0)" xlink:href="#aK"/><use transform="matrix(0.026041666666666668,0,0,0.026041666666666668,154.53125,0)" xlink:href="#aF"/><use transform="matrix(0.026041666666666668,0,0,0.026041666666666668,186.04166666666666,0)" xlink:href="#aB"/><use transform="matrix(0.026041666666666668,0,0,0.026041666666666668,217.13541666666669,0)" xlink:href="#aD"/></g><path d="M678-1118v154H420V0H240v-964H20v-154h220v-149c0-194 155-293 318-293 85 0 141 18 168 30l-50 154c-19-6-47-17-97-17-111 0-159 58-159 166v109h258" id="ba"/><g id="l"><use transform="matrix(0.026041666666666668,0,0,0.026041666666666668,0,0)" xlink:href="#ba"/><use transform="matrix(0.026041666666666668,0,0,0.026041666666666668,18.177083333333336,0)" xlink:href="#aI"/><use transform="matrix(0.026041666666666668,0,0,0.026041666666666668,50.15625,0)" xlink:href="#aD"/></g><path d="M158 0v-1490h180v865h22l478-493h223L593-638 1096 0H865L456-523 338-412V0H158" id="bb"/><g id="m"><use transform="matrix(0.026041666666666668,0,0,0.026041666666666668,0,0)" xlink:href="#aG"/><use transform="matrix(0.026041666666666668,0,0,0.026041666666666668,17.447916666666668,0)" xlink:href="#aD"/><use transform="matrix(0.026041666666666668,0,0,0.026041666666666668,37.52604166666667,0)" xlink:href="#aH"/><use transform="matrix(0.026041666666666668,0,0,0.026041666666666668,67.47395833333334,0)" xlink:href="#aJ"/><use transform="matrix(0.026041666666666668,0,0,0.026041666666666668,97.94270833333334,0)" xlink:href="#bb"/><use transform="matrix(0.026041666666666668,0,0,0.026041666666666668,127.2135416666667,0)" xlink:href="#aK"/><use transform="matrix(0.026041666666666668,0,0,0.026041666666666668,140.13020833333334,0)" xlink:href="#aF"/><use transform="matrix(0.026041666666666668,0,0,0.026041666666666668,171.640625,0)" xlink:href="#aM"/></g><g id="n"><use transform="matrix(0.026041666666666668,0,0,0.026041666666666668,0,0)" xlink:href="#aH"/><use transform="matrix(0.026041666666666668,0,0,0.026041666666666668,29.947916666666668,0)" xlink:href="#aO"/><use transform="matrix(0.026041666666666668,0,0,0.026041666666666668,42.864583333333336,0)" xlink:href="#aO"/></g><g id="o"><use transform="matrix(0.026041666666666668,0,0,0.026041666666666668,0,0)" xlink:href="#ba"/><use transform="matrix(0.026041666666666668,0,0,0.026041666666666668,19.739583333333336,0)" xlink:href="#aK"/><use transform="matrix(0.026041666666666668,0,0,0.026041666666666668,32.65625,0)" xlink:href="#aF"/><use transform="matrix(0.026041666666666668,0,0,0.026041666666666668,64.16666666666667,0)" xlink:href="#aH"/><use transform="matrix(0.026041666666666668,0,0,0.026041666666666668,94.11458333333334,0)" xlink:href="#aF"/><use transform="matrix(0.026041666666666668,0,0,0.026041666666666668,125.625,0)" xlink:href="#aJ"/><use transform="matrix(0.026041666666666668,0,0,0.026041666666666668,156.09375,0)" xlink:href="#aK"/><use transform="matrix(0.026041666666666668,0,0,0.026041666666666668,169.01041666666666,0)" xlink:href="#aH"/><use transform="matrix(0.026041666666666668,0,0,0.026041666666666668,198.95833333333331,0)" xlink:href="#aO"/></g><g id="p"><use transform="matrix(0.026041666666666668,0,0,0.026041666666666668,0,0)" xlink:href="#aG"/><use transform="matrix(0.026041666666666668,0,0,0.026041666666666668,17.447916666666668,0)" xlink:href="#aD"/><use transform="matrix(0.026041666666666668,0,0,0.026041666666666668,37.52604166666667,0)" xlink:href="#aH"/><use transform="matrix(0.026041666666666668,0,0,0.026041666666666668,67.47395833333334,0)" xlink:href="#aF"/><use transform="matrix(0.026041666666666668,0,0,0.026041666666666668,98.98437500000001,0)" xlink:href="#aE"/><use transform="matrix(0.026041666666666668,0,0,0.026041666666666668,127.1354166666667,0)" xlink:href="#aH"/><use transform="matrix(0.026041666666666668,0,0,0.026041666666666668,157.08333333333334,0)" xlink:href="#aJ"/><use transform="matrix(0.026041666666666668,0,0,0.026041666666666668,187.55208333333334,0)" xlink:href="#aG"/><use transform="matrix(0.026041666666666668,0,0,0.026041666666666668,205,0)" xlink:href="#aK"/><use transform="matrix(0.026041666666666668,0,0,0.026041666666666668,217.91666666666669,0)" xlink:href="#aI"/><use transform="matrix(0.026041666666666668,0,0,0.026041666666666668,249.8958333333333,0)" xlink:href="#aF"/><use transform="matrix(0.026041666666666668,0,0,0.026041666666666668,281.40625,0)" xlink:href="#aE"/></g><path d="M577 24c-279 0-473-224-473-580 0-354 195-576 474-576 218 0 287 134 324 193h14v-551h180V0H922v-173h-20C865-111 790 24 577 24zm27-161c203 0 314-172 314-421 0-247-108-413-314-413-212 0-317 181-317 413 0 235 108 421 317 421" id="bc"/><g id="q"><use transform="matrix(0.026041666666666668,0,0,0.026041666666666668,0,0)" xlink:href="#aD"/><use transform="matrix(0.026041666666666668,0,0,0.026041666666666668,19.192708333333332,0)" xlink:href="#aB"/><use transform="matrix(0.026041666666666668,0,0,0.026041666666666668,50.28645833333333,0)" xlink:href="#aO"/><use transform="matrix(0.026041666666666668,0,0,0.026041666666666668,63.203125,0)" xlink:href="#aH"/><use transform="matrix(0.026041666666666668,0,0,0.026041666666666668,93.15104166666667,0)" xlink:href="#aG"/><use transform="matrix(0.026041666666666668,0,0,0.026041666666666668,110.078125,0)" xlink:href="#aB"/><use transform="matrix(0.026041666666666668,0,0,0.026041666666666668,141.171875,0)" xlink:href="#bc"/></g><g id="r"><use transform="matrix(0.026041666666666668,0,0,0.026041666666666668,0,0)" xlink:href="#aG"/><use transform="matrix(0.026041666666666668,0,0,0.026041666666666668,16.927083333333336,0)" xlink:href="#aI"/></g><use transform="matrix(0.026041666666666668,0,0,0.026041666666666668,0,0)" xlink:href="#aH" id="s"/><path d="M295 13c-75 0-135-60-135-135s60-135 135-135 135 60 135 135S370 13 295 13" id="bd"/><g id="t"><use transform="matrix(0.026041666666666668,0,0,0.026041666666666668,0,0)" xlink:href="#aC"/><use transform="matrix(0.026041666666666668,0,0,0.026041666666666668,33.177083333333336,0)" xlink:href="#aH"/><use transform="matrix(0.026041666666666668,0,0,0.026041666666666668,63.125,0)" xlink:href="#aG"/><use transform="matrix(0.026041666666666668,0,0,0.026041666666666668,80.57291666666667,0)" xlink:href="#aK"/><use transform="matrix(0.026041666666666668,0,0,0.026041666666666668,93.48958333333334,0)" xlink:href="#aB"/><use transform="matrix(0.026041666666666668,0,0,0.026041666666666668,124.58333333333334,0)" xlink:href="#aF"/><use transform="matrix(0.026041666666666668,0,0,0.026041666666666668,156.09375,0)" xlink:href="#aG"/><use transform="matrix(0.026041666666666668,0,0,0.026041666666666668,173.54166666666666,0)" xlink:href="#bd"/></g><path fill="#fff" d="M52 0l541-1490h220L1361 0h-200l-149-416H398L254 0H52zm404-582h497c-103-290-145-390-251-756-108 377-145 460-246 756" id="be"/><path fill="#fff" d="M613 24c-304 0-509-231-509-576 0-350 205-580 509-580 216 0 392 114 453 309l-173 49c-33-115-133-197-280-197-223 0-326 196-326 419 0 220 103 415 326 415 150 0 252-85 285-206l172 49C1010-95 832 24 613 24" id="bf"/><path fill="#fff" d="M613 24c-304 0-509-231-509-576 0-350 205-580 509-580 305 0 511 230 511 580 0 345-206 576-511 576zm0-161c226 0 329-195 329-415 0-222-103-419-329-419-223 0-326 196-326 419 0 220 103 415 326 415" id="bg"/><path fill="#fff" d="M537 14c-226 0-379-139-379-422v-710h180v695c0 172 97 275 253 275 160 0 281-109 281-300v-670h181V0H879v-209C806-46 684 14 537 14" id="bh"/><g id="u"><use transform="matrix(0.032552083333333336,0,0,0.032552083333333336,0,0)" xlink:href="#be"/><use transform="matrix(0.032552083333333336,0,0,0.032552083333333336,45.99609375,0)" xlink:href="#bf"/><use transform="matrix(0.032552083333333336,0,0,0.032552083333333336,84.08203125,0)" xlink:href="#bf"/><use transform="matrix(0.032552083333333336,0,0,0.032552083333333336,122.16796875,0)" xlink:href="#bg"/><use transform="matrix(0.032552083333333336,0,0,0.032552083333333336,162.14192708333334,0)" xlink:href="#bh"/><use transform="matrix(0.032552083333333336,0,0,0.032552083333333336,201.56250000000003,0)" xlink:href="#aU"/><use transform="matrix(0.032552083333333336,0,0,0.032552083333333336,240.95052083333334,0)" xlink:href="#aR"/></g><g id="v"><use transform="matrix(0.026041666666666668,0,0,0.026041666666666668,0,0)" xlink:href="#aD"/><use transform="matrix(0.026041666666666668,0,0,0.026041666666666668,19.192708333333332,0)" xlink:href="#aB"/><use transform="matrix(0.026041666666666668,0,0,0.026041666666666668,50.28645833333333,0)" xlink:href="#aJ"/><use transform="matrix(0.026041666666666668,0,0,0.026041666666666668,80.75520833333333,0)" xlink:href="#aI"/><use transform="matrix(0.026041666666666668,0,0,0.026041666666666668,112.734375,0)" xlink:href="#aD"/><use transform="matrix(0.026041666666666668,0,0,0.026041666666666668,131.92708333333331,0)" xlink:href="#bc"/></g><g id="w"><use transform="matrix(0.026041666666666668,0,0,0.026041666666666668,0,0)" xlink:href="#aI"/><use transform="matrix(0.026041666666666668,0,0,0.026041666666666668,31.979166666666668,0)" xlink:href="#ba"/></g><use transform="matrix(0.026041666666666668,0,0,0.026041666666666668,0,0)" xlink:href="#aH" id="x"/><path d="M537 14c-226 0-379-139-379-422v-710h180v695c0 172 97 275 253 275 160 0 281-109 281-300v-670h181V0H879v-209C806-46 684 14 537 14" id="bi"/><g id="y"><use transform="matrix(0.026041666666666668,0,0,0.026041666666666668,0,0)" xlink:href="#aC"/><use transform="matrix(0.026041666666666668,0,0,0.026041666666666668,32.65625,0)" xlink:href="#aD"/><use transform="matrix(0.026041666666666668,0,0,0.026041666666666668,51.84895833333333,0)" xlink:href="#aI"/><use transform="matrix(0.026041666666666668,0,0,0.026041666666666668,83.828125,0)" xlink:href="#bc"/><use transform="matrix(0.026041666666666668,0,0,0.026041666666666668,116.484375,0)" xlink:href="#bi"/><use transform="matrix(0.026041666666666668,0,0,0.026041666666666668,148.02083333333334,0)" xlink:href="#aJ"/><use transform="matrix(0.026041666666666668,0,0,0.026041666666666668,178.48958333333334,0)" xlink:href="#aG"/></g><g id="z"><use transform="matrix(0.026041666666666668,0,0,0.026041666666666668,0,0)" xlink:href="#aI"/><use transform="matrix(0.026041666666666668,0,0,0.026041666666666668,31.979166666666668,0)" xlink:href="#aD"/></g><g id="A"><use transform="matrix(0.026041666666666668,0,0,0.026041666666666668,0,0)" xlink:href="#aE"/><use transform="matrix(0.026041666666666668,0,0,0.026041666666666668,28.151041666666668,0)" xlink:href="#aB"/><use transform="matrix(0.026041666666666668,0,0,0.026041666666666668,59.24479166666667,0)" xlink:href="#aD"/><use transform="matrix(0.026041666666666668,0,0,0.026041666666666668,80.15625,0)" xlink:href="#aL"/><use transform="matrix(0.026041666666666668,0,0,0.026041666666666668,110.13020833333334,0)" xlink:href="#aK"/><use transform="matrix(0.026041666666666668,0,0,0.026041666666666668,123.046875,0)" xlink:href="#aJ"/><use transform="matrix(0.026041666666666668,0,0,0.026041666666666668,153.515625,0)" xlink:href="#aB"/></g><g id="B"><use transform="matrix(0.026041666666666668,0,0,0.026041666666666668,0,0)" xlink:href="#aC"/><use transform="matrix(0.026041666666666668,0,0,0.026041666666666668,32.65625,0)" xlink:href="#aD"/><use transform="matrix(0.026041666666666668,0,0,0.026041666666666668,51.84895833333333,0)" xlink:href="#aI"/><use transform="matrix(0.026041666666666668,0,0,0.026041666666666668,82.78645833333333,0)" xlink:href="#aL"/><use transform="matrix(0.026041666666666668,0,0,0.026041666666666668,112.76041666666664,0)" xlink:href="#aK"/><use transform="matrix(0.026041666666666668,0,0,0.026041666666666668,125.67708333333334,0)" xlink:href="#bc"/><use transform="matrix(0.026041666666666668,0,0,0.026041666666666668,158.33333333333331,0)" xlink:href="#aB"/><use transform="matrix(0.026041666666666668,0,0,0.026041666666666668,189.42708333333331,0)" xlink:href="#bc"/></g><path fill="#fff" d="M786 20C389 20 94-260 94-744c0-487 299-766 692-766 339 0 597 194 641 529h-309c-28-162-156-258-326-258-233 0-388 179-388 495 0 323 157 493 387 493 170 0 298-97 328-259h309c-34 277-266 530-642 530" id="bj"/><path fill="#fff" d="M428-647V0H128v-1490h294v586c65-146 175-228 341-228 232 0 385 159 385 421V0H847v-659c0-139-76-222-202-222-128 0-217 86-217 234" id="bk"/><path fill="#fff" d="M440 22C227 22 68-92 68-313c0-250 202-322 422-343 195-21 271-24 271-105 0-95-63-149-175-149-116 0-187 57-211 129l-275-46c57-194 237-305 487-305 240 0 474 108 474 379V0H777v-155h-10C713-51 605 22 440 22zm85-211c140 0 238-93 238-211v-121c-37 26-156 42-222 51-111 16-185 59-185 149 0 87 70 132 169 132" id="bl"/><path fill="#fff" d="M128 0v-1118h290v195h12c54-169 184-238 367-200v268c-27-8-86-15-130-15-138 0-239 95-239 234V0H128" id="bm"/><path fill="#fff" d="M625 442c-280 0-454-114-503-274l258-72c28 63 97 128 243 128 153 0 246-69 246-216v-206h-23C805-108 717-16 536-16 284-16 81-191 81-561c0-378 208-571 456-571 188 0 280 113 321 202h13v-188h295V-9c0 303-226 451-541 451zm5-686c153 0 240-119 240-319 0-198-86-329-240-329-158 0-241 137-241 329 0 195 85 319 241 319" id="bn"/><path fill="#fff" d="M633 22C291 22 81-200 81-553c0-345 210-579 537-579 292 0 525 185 525 567v84H378c7 183 109 277 260 277 105 0 184-46 216-132l272 51C1071-99 893 22 633 22zM380-669h474c-15-146-94-237-233-237-143 0-229 99-241 237" id="bo"/><g id="C"><use transform="matrix(0.032552083333333336,0,0,0.032552083333333336,0,0)" xlink:href="#bj"/><use transform="matrix(0.032552083333333336,0,0,0.032552083333333336,49.31640625,0)" xlink:href="#bk"/><use transform="matrix(0.032552083333333336,0,0,0.032552083333333336,90.8203125,0)" xlink:href="#bl"/><use transform="matrix(0.032552083333333336,0,0,0.032552083333333336,129.52473958333334,0)" xlink:href="#bm"/><use transform="matrix(0.032552083333333336,0,0,0.032552083333333336,155.04557291666669,0)" xlink:href="#bn"/><use transform="matrix(0.032552083333333336,0,0,0.032552083333333336,197.16796875,0)" xlink:href="#bo"/></g><path fill="#fff" d="M440-1490V0H135v-1490h305" id="bp"/><path fill="#fff" d="M683-1118v229H474v562c0 71 29 104 102 104 23 0 73-7 95-13l43 225C647 9 580 16 520 16 296 16 174-96 174-301v-588H20v-229h154v-266h300v266h209" id="bq"/><path fill="#fff" d="M128 0v-1118h278l12 217c60-163 185-234 319-234 143 0 236 81 288 251 63-172 205-251 359-251 205 0 357 138 357 381V0h-301v-697c0-126-76-187-177-187-114 0-184 79-184 196V0H789v-705c0-109-72-179-174-179-106 0-187 74-187 208V0H128" id="br"/><g id="D"><use transform="matrix(0.032552083333333336,0,0,0.032552083333333336,0,0)" xlink:href="#bp"/><use transform="matrix(0.032552083333333336,0,0,0.032552083333333336,19.694010416666668,0)" xlink:href="#bq"/><use transform="matrix(0.032552083333333336,0,0,0.032552083333333336,43.45703125,0)" xlink:href="#bo"/><use transform="matrix(0.032552083333333336,0,0,0.032552083333333336,83.17057291666667,0)" xlink:href="#br"/></g><path d="M749-1490V0H444v-1221h-10L93-980v-279l329-231h327" id="bs"/><use transform="matrix(0.0368923611111111,0,0,0.0368923611111111,0,0)" xlink:href="#bs" id="E"/><path d="M657 26c-323 0-524-166-541-416h195c15 169 171 246 346 246 202 0 356-106 356-265 5-203-294-238-475-293-239-73-380-191-380-389 0-252 224-419 512-419 294 0 499 171 508 396H992c-17-145-151-228-328-228-193 0-321 102-321 242 0 156 175 211 284 241l149 41c160 44 422 134 422 412 0 244-197 432-541 432" id="bt"/><g id="F"><use transform="matrix(0.026041666666666668,0,0,0.026041666666666668,0,0)" xlink:href="#bt"/><use transform="matrix(0.026041666666666668,0,0,0.026041666666666668,34.21875,0)" xlink:href="#aC"/><use transform="matrix(0.026041666666666668,0,0,0.026041666666666668,66.875,0)" xlink:href="#aB"/><use transform="matrix(0.026041666666666668,0,0,0.026041666666666668,97.96875,0)" xlink:href="#aJ"/><use transform="matrix(0.026041666666666668,0,0,0.026041666666666668,128.4375,0)" xlink:href="#aK"/><use transform="matrix(0.026041666666666668,0,0,0.026041666666666668,141.35416666666666,0)" xlink:href="#ba"/><use transform="matrix(0.026041666666666668,0,0,0.026041666666666668,161.09375,0)" xlink:href="#aK"/><use transform="matrix(0.026041666666666668,0,0,0.026041666666666668,174.01041666666666,0)" xlink:href="#aB"/><use transform="matrix(0.026041666666666668,0,0,0.026041666666666668,205.10416666666666,0)" xlink:href="#aE"/></g><path d="M409 0L70-1118h191c89 329 165 560 243 925 75-353 154-601 240-925h192c85 325 161 564 235 922 77-354 157-598 244-922h191L1267 0h-179c-86-307-176-590-250-913C763-588 675-308 588 0H409" id="bu"/><g id="G"><use transform="matrix(0.026041666666666668,0,0,0.026041666666666668,0,0)" xlink:href="#bu"/><use transform="matrix(0.026041666666666668,0,0,0.026041666666666668,43.645833333333336,0)" xlink:href="#aN"/><use transform="matrix(0.026041666666666668,0,0,0.026041666666666668,75.18229166666667,0)" xlink:href="#aH"/><use transform="matrix(0.026041666666666668,0,0,0.026041666666666668,105.13020833333334,0)" xlink:href="#aG"/></g><path d="M158 0v-1118h175l1 205c55-151 181-225 313-225 147 0 245 90 285 228 53-141 190-228 352-228 194 0 352 125 352 384V0h-181v-749c0-161-105-225-225-225-151 0-243 103-243 244V0H807v-767c0-124-93-207-219-207-131 0-250 92-250 270V0H158" id="bv"/><path d="M692-1560L212 224H46l480-1784h166" id="bw"/><g id="H"><use transform="matrix(0.026041666666666668,0,0,0.026041666666666668,0,0)" xlink:href="#aK"/><use transform="matrix(0.026041666666666668,0,0,0.026041666666666668,12.916666666666668,0)" xlink:href="#aG"/><use transform="matrix(0.026041666666666668,0,0,0.026041666666666668,29.84375,0)" xlink:href="#aB"/><use transform="matrix(0.026041666666666668,0,0,0.026041666666666668,60.9375,0)" xlink:href="#bv"/><use transform="matrix(0.026041666666666668,0,0,0.026041666666666668,107.65625,0)" xlink:href="#aE"/><use transform="matrix(0.026041666666666668,0,0,0.026041666666666668,135.80729166666666,0)" xlink:href="#bw"/><use transform="matrix(0.026041666666666668,0,0,0.026041666666666668,155.02604166666666,0)" xlink:href="#aE"/><use transform="matrix(0.026041666666666668,0,0,0.026041666666666668,183.17708333333331,0)" xlink:href="#aB"/><use transform="matrix(0.026041666666666668,0,0,0.026041666666666668,214.2708333333333,0)" xlink:href="#aD"/><use transform="matrix(0.026041666666666668,0,0,0.026041666666666668,235.18229166666669,0)" xlink:href="#aL"/><use transform="matrix(0.026041666666666668,0,0,0.026041666666666668,265.15625,0)" xlink:href="#aK"/><use transform="matrix(0.026041666666666668,0,0,0.026041666666666668,278.0729166666667,0)" xlink:href="#aJ"/><use transform="matrix(0.026041666666666668,0,0,0.026041666666666668,308.5416666666667,0)" xlink:href="#aB"/><use transform="matrix(0.026041666666666668,0,0,0.026041666666666668,339.6354166666667,0)" xlink:href="#aE"/></g><g id="I"><use transform="matrix(0.026041666666666668,0,0,0.026041666666666668,0,0)" xlink:href="#aJ"/><use transform="matrix(0.026041666666666668,0,0,0.026041666666666668,30.989583333333336,0)" xlink:href="#aH"/><use transform="matrix(0.026041666666666668,0,0,0.026041666666666668,60.9375,0)" xlink:href="#aF"/></g><path d="M677 24c-213 0-288-135-325-197h-20V0H158v-1490h180v551h14c37-59 106-193 324-193 279 0 474 222 474 576 0 356-194 580-473 580zm-27-161c209 0 317-186 317-421 0-232-105-413-317-413-206 0-314 166-314 413 0 249 111 421 314 421" id="bx"/><g id="J"><use transform="matrix(0.026041666666666668,0,0,0.026041666666666668,0,0)" xlink:href="#bx"/><use transform="matrix(0.026041666666666668,0,0,0.026041666666666668,32.65625,0)" xlink:href="#aB"/></g><g id="K"><use transform="matrix(0.026041666666666668,0,0,0.026041666666666668,0,0)" xlink:href="#bx"/><use transform="matrix(0.026041666666666668,0,0,0.026041666666666668,32.65625,0)" xlink:href="#aK"/><use transform="matrix(0.026041666666666668,0,0,0.026041666666666668,45.57291666666667,0)" xlink:href="#aO"/><use transform="matrix(0.026041666666666668,0,0,0.026041666666666668,58.48958333333335,0)" xlink:href="#aO"/><use transform="matrix(0.026041666666666668,0,0,0.026041666666666668,71.40625000000001,0)" xlink:href="#aB"/><use transform="matrix(0.026041666666666668,0,0,0.026041666666666668,102.50000000000001,0)" xlink:href="#bc"/></g><g id="L"><use transform="matrix(0.026041666666666668,0,0,0.026041666666666668,0,0)" xlink:href="#aH"/><use transform="matrix(0.026041666666666668,0,0,0.026041666666666668,29.947916666666668,0)" xlink:href="#aF"/><use transform="matrix(0.026041666666666668,0,0,0.026041666666666668,61.458333333333336,0)" xlink:href="#bc"/></g><g id="M"><use transform="matrix(0.026041666666666668,0,0,0.026041666666666668,0,0)" xlink:href="#aN"/><use transform="matrix(0.026041666666666668,0,0,0.026041666666666668,31.536458333333336,0)" xlink:href="#aI"/><use transform="matrix(0.026041666666666668,0,0,0.026041666666666668,62.552083333333336,0)" xlink:href="#bu"/></g><g id="N"><use transform="matrix(0.026041666666666668,0,0,0.026041666666666668,0,0)" xlink:href="#aC"/><use transform="matrix(0.026041666666666668,0,0,0.026041666666666668,32.65625,0)" xlink:href="#aD"/><use transform="matrix(0.026041666666666668,0,0,0.026041666666666668,53.567708333333336,0)" xlink:href="#aK"/><use transform="matrix(0.026041666666666668,0,0,0.026041666666666668,66.484375,0)" xlink:href="#aJ"/><use transform="matrix(0.026041666666666668,0,0,0.026041666666666668,96.953125,0)" xlink:href="#aK"/><use transform="matrix(0.026041666666666668,0,0,0.026041666666666668,109.86979166666667,0)" xlink:href="#aF"/><use transform="matrix(0.026041666666666668,0,0,0.026041666666666668,141.38020833333334,0)" xlink:href="#aM"/></g><g id="O"><use transform="matrix(0.026041666666666668,0,0,0.026041666666666668,0,0)" xlink:href="#aI"/><use transform="matrix(0.026041666666666668,0,0,0.026041666666666668,31.979166666666668,0)" xlink:href="#aD"/></g><g id="P"><use transform="matrix(0.026041666666666668,0,0,0.026041666666666668,0,0)" xlink:href="#aJ"/><use transform="matrix(0.026041666666666668,0,0,0.026041666666666668,30.46875,0)" xlink:href="#aI"/><use transform="matrix(0.026041666666666668,0,0,0.026041666666666668,62.44791666666667,0)" xlink:href="#aF"/><use transform="matrix(0.026041666666666668,0,0,0.026041666666666668,93.95833333333334,0)" xlink:href="#bc"/><use transform="matrix(0.026041666666666668,0,0,0.026041666666666668,126.61458333333334,0)" xlink:href="#aK"/><use transform="matrix(0.026041666666666668,0,0,0.026041666666666668,139.53125,0)" xlink:href="#aG"/><use transform="matrix(0.026041666666666668,0,0,0.026041666666666668,156.97916666666666,0)" xlink:href="#aK"/><use transform="matrix(0.026041666666666668,0,0,0.026041666666666668,169.89583333333331,0)" xlink:href="#aI"/><use transform="matrix(0.026041666666666668,0,0,0.026041666666666668,201.87499999999997,0)" xlink:href="#aF"/><use transform="matrix(0.026041666666666668,0,0,0.026041666666666668,233.38541666666663,0)" xlink:href="#aE"/></g><g id="Q"><use transform="matrix(0.026041666666666668,0,0,0.026041666666666668,0,0)" xlink:href="#aH"/><use transform="matrix(0.026041666666666668,0,0,0.026041666666666668,29.947916666666668,0)" xlink:href="#aD"/><use transform="matrix(0.026041666666666668,0,0,0.026041666666666668,49.140625,0)" xlink:href="#aB"/></g><g id="R"><use transform="matrix(0.026041666666666668,0,0,0.026041666666666668,0,0)" xlink:href="#aH"/><use transform="matrix(0.026041666666666668,0,0,0.026041666666666668,29.947916666666668,0)" xlink:href="#aC"/><use transform="matrix(0.026041666666666668,0,0,0.026041666666666668,62.60416666666667,0)" xlink:href="#aC"/><use transform="matrix(0.026041666666666668,0,0,0.026041666666666668,95.26041666666667,0)" xlink:href="#aO"/><use transform="matrix(0.026041666666666668,0,0,0.026041666666666668,108.17708333333334,0)" xlink:href="#aK"/><use transform="matrix(0.026041666666666668,0,0,0.026041666666666668,121.09375,0)" xlink:href="#aB"/><use transform="matrix(0.026041666666666668,0,0,0.026041666666666668,152.1875,0)" xlink:href="#bc"/><use transform="matrix(0.026041666666666668,0,0,0.026041666666666668,184.84375,0)" xlink:href="#bd"/></g><path fill="#fff" d="M783 20c-382 0-661-292-661-764 0-473 279-766 661-766 302 0 548 182 601 489h-190c-42-204-217-313-411-313-268 0-476 208-476 590 0 381 209 588 476 588 195 0 369-110 411-313h190c-52 303-296 489-601 489" id="by"/><path fill="#fff" d="M338-670V0H158v-1490h180v566c73-149 190-208 336-208 226 0 379 139 379 422V0H872v-695c0-172-96-275-252-275-161 0-282 109-282 300" id="bz"/><path fill="#fff" d="M158 0v-1118h174v172h12c41-113 157-188 290-188 26 0 70 2 91 3v181c-11-2-60-10-108-10-161 0-279 109-279 260V0H158" id="bA"/><path fill="#fff" d="M611 442c-248 0-391-105-460-228l146-94c47 65 117 165 314 165 178 0 307-82 307-266v-224h-17C863-141 792-18 576-18c-268 0-472-195-472-546 0-346 197-568 476-568 216 0 288 133 326 193h17v-179h175V29c0 289-215 413-487 413zm-5-620c203 0 314-146 314-390 0-237-108-403-314-403-213 0-319 180-319 403 0 230 109 390 319 390" id="bB"/><g id="S"><use transform="matrix(0.032552083333333336,0,0,0.032552083333333336,0,0)" xlink:href="#by"/><use transform="matrix(0.032552083333333336,0,0,0.032552083333333336,48.69791666666667,0)" xlink:href="#bz"/><use transform="matrix(0.032552083333333336,0,0,0.032552083333333336,88.11848958333334,0)" xlink:href="#aQ"/><use transform="matrix(0.032552083333333336,0,0,0.032552083333333336,125.55338541666669,0)" xlink:href="#bA"/><use transform="matrix(0.032552083333333336,0,0,0.032552083333333336,149.54427083333337,0)" xlink:href="#bB"/><use transform="matrix(0.032552083333333336,0,0,0.032552083333333336,190.42968750000006,0)" xlink:href="#aT"/></g><path fill="#fff" d="M370-1490V0H180v-1490h190" id="bC"/><path fill="#fff" d="M158 0v-1118h175l1 205c55-151 181-225 313-225 147 0 245 90 285 228 53-141 190-228 352-228 194 0 352 125 352 384V0h-181v-749c0-161-105-225-225-225-151 0-243 103-243 244V0H807v-767c0-124-93-207-219-207-131 0-250 92-250 270V0H158" id="bD"/><g id="T"><use transform="matrix(0.032552083333333336,0,0,0.032552083333333336,0,0)" xlink:href="#bC"/><use transform="matrix(0.032552083333333336,0,0,0.032552083333333336,18.880208333333336,0)" xlink:href="#aR"/><use transform="matrix(0.032552083333333336,0,0,0.032552083333333336,40.0390625,0)" xlink:href="#aT"/><use transform="matrix(0.032552083333333336,0,0,0.032552083333333336,78.90625,0)" xlink:href="#bD"/></g><path fill="#fff" d="M645 0H180v-1490h484c435 0 692 280 692 742 0 466-257 748-711 748zM370-168h263c363 0 539-218 539-580 0-358-176-574-521-574H370v1154" id="bE"/><path fill="#fff" d="M678-1118v154H420V0H240v-964H20v-154h220v-149c0-194 155-293 318-293 85 0 141 18 168 30l-50 154c-19-6-47-17-97-17-111 0-159 58-159 166v109h258" id="bF"/><g id="U"><use transform="matrix(0.032552083333333336,0,0,0.032552083333333336,0,0)" xlink:href="#bE"/><use transform="matrix(0.032552083333333336,0,0,0.032552083333333336,48.11197916666667,0)" xlink:href="#aT"/><use transform="matrix(0.032552083333333336,0,0,0.032552083333333336,86.97916666666667,0)" xlink:href="#bF"/><use transform="matrix(0.032552083333333336,0,0,0.032552083333333336,111.65364583333334,0)" xlink:href="#aS"/><use transform="matrix(0.032552083333333336,0,0,0.032552083333333336,127.79947916666669,0)" xlink:href="#aU"/><use transform="matrix(0.032552083333333336,0,0,0.032552083333333336,167.18750000000003,0)" xlink:href="#aS"/><use transform="matrix(0.032552083333333336,0,0,0.032552083333333336,183.33333333333337,0)" xlink:href="#aR"/><use transform="matrix(0.032552083333333336,0,0,0.032552083333333336,205.1432291666667,0)" xlink:href="#aS"/><use transform="matrix(0.032552083333333336,0,0,0.032552083333333336,221.28906250000006,0)" xlink:href="#bg"/><use transform="matrix(0.032552083333333336,0,0,0.032552083333333336,261.26302083333337,0)" xlink:href="#aU"/></g><g id="V"><use transform="matrix(0.026041666666666668,0,0,0.026041666666666668,0,0)" xlink:href="#aJ"/><use transform="matrix(0.026041666666666668,0,0,0.026041666666666668,30.46875,0)" xlink:href="#aI"/><use transform="matrix(0.026041666666666668,0,0,0.026041666666666668,62.44791666666667,0)" xlink:href="#aO"/><use transform="matrix(0.026041666666666668,0,0,0.026041666666666668,75.36458333333334,0)" xlink:href="#aO"/><use transform="matrix(0.026041666666666668,0,0,0.026041666666666668,88.28125000000001,0)" xlink:href="#aB"/><use transform="matrix(0.026041666666666668,0,0,0.026041666666666668,119.375,0)" xlink:href="#aJ"/><use transform="matrix(0.026041666666666668,0,0,0.026041666666666668,149.84375,0)" xlink:href="#aG"/><use transform="matrix(0.026041666666666668,0,0,0.026041666666666668,167.29166666666666,0)" xlink:href="#aK"/><use transform="matrix(0.026041666666666668,0,0,0.026041666666666668,180.20833333333331,0)" xlink:href="#aI"/><use transform="matrix(0.026041666666666668,0,0,0.026041666666666668,212.18749999999997,0)" xlink:href="#aF"/></g><g id="W"><use transform="matrix(0.026041666666666668,0,0,0.026041666666666668,0,0)" xlink:href="#aJ"/><use transform="matrix(0.026041666666666668,0,0,0.026041666666666668,30.46875,0)" xlink:href="#aN"/><use transform="matrix(0.026041666666666668,0,0,0.026041666666666668,62.005208333333336,0)" xlink:href="#aH"/><use transform="matrix(0.026041666666666668,0,0,0.026041666666666668,91.953125,0)" xlink:href="#aD"/><use transform="matrix(0.026041666666666668,0,0,0.026041666666666668,111.14583333333334,0)" xlink:href="#aM"/><use transform="matrix(0.026041666666666668,0,0,0.026041666666666668,143.85416666666666,0)" xlink:href="#aB"/></g><g id="X"><use transform="matrix(0.026041666666666668,0,0,0.026041666666666668,0,0)" xlink:href="#aK"/><use transform="matrix(0.026041666666666668,0,0,0.026041666666666668,12.916666666666668,0)" xlink:href="#aG"/><use transform="matrix(0.026041666666666668,0,0,0.026041666666666668,29.84375,0)" xlink:href="#aB"/><use transform="matrix(0.026041666666666668,0,0,0.026041666666666668,60.9375,0)" xlink:href="#bv"/><use transform="matrix(0.026041666666666668,0,0,0.026041666666666668,107.65625,0)" xlink:href="#aE"/></g><g id="Y"><use transform="matrix(0.026041666666666668,0,0,0.026041666666666668,0,0)" xlink:href="#aM"/><use transform="matrix(0.026041666666666668,0,0,0.026041666666666668,32.708333333333336,0)" xlink:href="#aD"/><use transform="matrix(0.026041666666666668,0,0,0.026041666666666668,51.90104166666667,0)" xlink:href="#aI"/><use transform="matrix(0.026041666666666668,0,0,0.026041666666666668,83.88020833333334,0)" xlink:href="#bi"/><use transform="matrix(0.026041666666666668,0,0,0.026041666666666668,115.4166666666667,0)" xlink:href="#aC"/><use transform="matrix(0.026041666666666668,0,0,0.026041666666666668,148.07291666666669,0)" xlink:href="#aB"/><use transform="matrix(0.026041666666666668,0,0,0.026041666666666668,179.16666666666669,0)" xlink:href="#bc"/></g><g id="Z"><use transform="matrix(0.026041666666666668,0,0,0.026041666666666668,0,0)" xlink:href="#bx"/><use transform="matrix(0.026041666666666668,0,0,0.026041666666666668,32.65625,0)" xlink:href="#aK"/><use transform="matrix(0.026041666666666668,0,0,0.026041666666666668,45.57291666666667,0)" xlink:href="#aO"/><use transform="matrix(0.026041666666666668,0,0,0.026041666666666668,58.48958333333335,0)" xlink:href="#aO"/><use transform="matrix(0.026041666666666668,0,0,0.026041666666666668,71.40625000000001,0)" xlink:href="#aK"/><use transform="matrix(0.026041666666666668,0,0,0.026041666666666668,84.32291666666669,0)" xlink:href="#aF"/><use transform="matrix(0.026041666666666668,0,0,0.026041666666666668,115.83333333333336,0)" xlink:href="#aM"/></g><g id="aa"><use transform="matrix(0.026041666666666668,0,0,0.026041666666666668,0,0)" xlink:href="#aH"/><use transform="matrix(0.026041666666666668,0,0,0.026041666666666668,29.947916666666668,0)" xlink:href="#aF"/><use transform="matrix(0.026041666666666668,0,0,0.026041666666666668,61.458333333333336,0)" xlink:href="#bc"/></g><path d="M140 405l46-156c120 36 205 19 263-150l32-93L54-1118h197c107 313 237 620 324 950 87-331 219-637 326-950h196L606 167c-68 178-176 259-334 259-64 0-113-12-132-21" id="bG"/><g id="ab"><use transform="matrix(0.026041666666666668,0,0,0.026041666666666668,0,0)" xlink:href="#aC"/><use transform="matrix(0.026041666666666668,0,0,0.026041666666666668,33.177083333333336,0)" xlink:href="#aH"/><use transform="matrix(0.026041666666666668,0,0,0.026041666666666668,62.34375,0)" xlink:href="#bG"/><use transform="matrix(0.026041666666666668,0,0,0.026041666666666668,92.31770833333334,0)" xlink:href="#bv"/><use transform="matrix(0.026041666666666668,0,0,0.026041666666666668,139.03645833333334,0)" xlink:href="#aB"/><use transform="matrix(0.026041666666666668,0,0,0.026041666666666668,170.13020833333334,0)" xlink:href="#aF"/><use transform="matrix(0.026041666666666668,0,0,0.026041666666666668,201.640625,0)" xlink:href="#aG"/></g><g id="ac"><use transform="matrix(0.026041666666666668,0,0,0.026041666666666668,0,0)" xlink:href="#aC"/><use transform="matrix(0.026041666666666668,0,0,0.026041666666666668,32.65625,0)" xlink:href="#bi"/><use transform="matrix(0.026041666666666668,0,0,0.026041666666666668,64.19270833333334,0)" xlink:href="#aD"/><use transform="matrix(0.026041666666666668,0,0,0.026041666666666668,85.10416666666667,0)" xlink:href="#aC"/><use transform="matrix(0.026041666666666668,0,0,0.026041666666666668,117.76041666666667,0)" xlink:href="#aI"/><use transform="matrix(0.026041666666666668,0,0,0.026041666666666668,149.73958333333334,0)" xlink:href="#aE"/><use transform="matrix(0.026041666666666668,0,0,0.026041666666666668,177.890625,0)" xlink:href="#aB"/><use transform="matrix(0.026041666666666668,0,0,0.026041666666666668,208.984375,0)" xlink:href="#aE"/><use transform="matrix(0.026041666666666668,0,0,0.026041666666666668,237.13541666666669,0)" xlink:href="#bd"/></g><path fill="#fff" d="M481 0L54-1118h197c107 314 236 620 325 951 87-331 217-637 324-951h197L670 0H481" id="bH"/><g id="ad"><use transform="matrix(0.032552083333333336,0,0,0.032552083333333336,0,0)" xlink:href="#bC"/><use transform="matrix(0.032552083333333336,0,0,0.032552083333333336,17.903645833333336,0)" xlink:href="#aU"/><use transform="matrix(0.032552083333333336,0,0,0.032552083333333336,56.31510416666667,0)" xlink:href="#bH"/><use transform="matrix(0.032552083333333336,0,0,0.032552083333333336,92.48046875,0)" xlink:href="#bg"/><use transform="matrix(0.032552083333333336,0,0,0.032552083333333336,132.45442708333334,0)" xlink:href="#aS"/><use transform="matrix(0.032552083333333336,0,0,0.032552083333333336,148.60026041666669,0)" xlink:href="#bf"/><use transform="matrix(0.032552083333333336,0,0,0.032552083333333336,186.68619791666669,0)" xlink:href="#aT"/></g><g id="ae"><use transform="matrix(0.026041666666666668,0,0,0.026041666666666668,0,0)" xlink:href="#aC"/><use transform="matrix(0.026041666666666668,0,0,0.026041666666666668,33.177083333333336,0)" xlink:href="#aH"/><use transform="matrix(0.026041666666666668,0,0,0.026041666666666668,62.34375,0)" xlink:href="#bG"/><use transform="matrix(0.026041666666666668,0,0,0.026041666666666668,92.31770833333334,0)" xlink:href="#bv"/><use transform="matrix(0.026041666666666668,0,0,0.026041666666666668,139.03645833333334,0)" xlink:href="#aB"/><use transform="matrix(0.026041666666666668,0,0,0.026041666666666668,170.13020833333334,0)" xlink:href="#aF"/><use transform="matrix(0.026041666666666668,0,0,0.026041666666666668,201.640625,0)" xlink:href="#aG"/></g><g id="af"><use transform="matrix(0.026041666666666668,0,0,0.026041666666666668,0,0)" xlink:href="#bv"/><use transform="matrix(0.026041666666666668,0,0,0.026041666666666668,46.71875,0)" xlink:href="#aH"/><use transform="matrix(0.026041666666666668,0,0,0.026041666666666668,76.66666666666667,0)" xlink:href="#bc"/><use transform="matrix(0.026041666666666668,0,0,0.026041666666666668,109.32291666666667,0)" xlink:href="#aB"/></g><g id="ag"><use transform="matrix(0.026041666666666668,0,0,0.026041666666666668,0,0)" xlink:href="#aH"/><use transform="matrix(0.026041666666666668,0,0,0.026041666666666668,29.947916666666668,0)" xlink:href="#aM"/><use transform="matrix(0.026041666666666668,0,0,0.026041666666666668,62.65625,0)" xlink:href="#aH"/><use transform="matrix(0.026041666666666668,0,0,0.026041666666666668,92.60416666666667,0)" xlink:href="#aK"/><use transform="matrix(0.026041666666666668,0,0,0.026041666666666668,105.52083333333334,0)" xlink:href="#aF"/><use transform="matrix(0.026041666666666668,0,0,0.026041666666666668,137.03125,0)" xlink:href="#aE"/><use transform="matrix(0.026041666666666668,0,0,0.026041666666666668,165.18229166666666,0)" xlink:href="#aG"/></g><g id="ah"><use transform="matrix(0.026041666666666668,0,0,0.026041666666666668,0,0)" xlink:href="#aH"/><use transform="matrix(0.026041666666666668,0,0,0.026041666666666668,29.947916666666668,0)" xlink:href="#aF"/></g><g id="ai"><use transform="matrix(0.026041666666666668,0,0,0.026041666666666668,0,0)" xlink:href="#aK"/><use transform="matrix(0.026041666666666668,0,0,0.026041666666666668,12.916666666666668,0)" xlink:href="#aF"/><use transform="matrix(0.026041666666666668,0,0,0.026041666666666668,43.645833333333336,0)" xlink:href="#aL"/><use transform="matrix(0.026041666666666668,0,0,0.026041666666666668,72.578125,0)" xlink:href="#aI"/><use transform="matrix(0.026041666666666668,0,0,0.026041666666666668,104.55729166666667,0)" xlink:href="#aK"/><use transform="matrix(0.026041666666666668,0,0,0.026041666666666668,117.47395833333334,0)" xlink:href="#aJ"/><use transform="matrix(0.026041666666666668,0,0,0.026041666666666668,147.94270833333334,0)" xlink:href="#aB"/></g><g id="aj"><use transform="matrix(0.026041666666666668,0,0,0.026041666666666668,0,0)" xlink:href="#aI"/><use transform="matrix(0.026041666666666668,0,0,0.026041666666666668,31.979166666666668,0)" xlink:href="#aD"/></g><g id="ak"><use transform="matrix(0.026041666666666668,0,0,0.026041666666666668,0,0)" xlink:href="#aH"/><use transform="matrix(0.026041666666666668,0,0,0.026041666666666668,29.947916666666668,0)" xlink:href="#aJ"/><use transform="matrix(0.026041666666666668,0,0,0.026041666666666668,60.41666666666667,0)" xlink:href="#aJ"/><use transform="matrix(0.026041666666666668,0,0,0.026041666666666668,90.88541666666667,0)" xlink:href="#aI"/><use transform="matrix(0.026041666666666668,0,0,0.026041666666666668,122.86458333333334,0)" xlink:href="#bi"/><use transform="matrix(0.026041666666666668,0,0,0.026041666666666668,154.40104166666669,0)" xlink:href="#aF"/><use transform="matrix(0.026041666666666668,0,0,0.026041666666666668,185.91145833333334,0)" xlink:href="#aG"/><use transform="matrix(0.026041666666666668,0,0,0.026041666666666668,203.359375,0)" xlink:href="#bd"/></g><path fill="#fff" d="M140 405l46-156c120 36 205 19 263-150l32-93L54-1118h197c107 313 237 620 324 950 87-331 219-637 326-950h196L606 167c-68 178-176 259-334 259-64 0-113-12-132-21" id="bI"/><g id="al"><use transform="matrix(0.032552083333333336,0,0,0.032552083333333336,0,0)" xlink:href="#aP"/><use transform="matrix(0.032552083333333336,0,0,0.032552083333333336,42.578125,0)" xlink:href="#aQ"/><use transform="matrix(0.032552083333333336,0,0,0.032552083333333336,79.03645833333334,0)" xlink:href="#bI"/><use transform="matrix(0.032552083333333336,0,0,0.032552083333333336,116.50390625000001,0)" xlink:href="#bD"/><use transform="matrix(0.032552083333333336,0,0,0.032552083333333336,174.90234375000003,0)" xlink:href="#aT"/><use transform="matrix(0.032552083333333336,0,0,0.032552083333333336,213.76953125000003,0)" xlink:href="#aU"/><use transform="matrix(0.032552083333333336,0,0,0.032552083333333336,253.15755208333337,0)" xlink:href="#aR"/></g><path fill="#fff" d="M180 0v-1490h510c348 0 508 194 508 460 0 198-88 351-276 417L1256 0h-220L726-579c-117 2-238 0-356 1V0H180zm190-747h312c235 0 327-108 327-283 0-177-92-293-329-293H370v576" id="bJ"/><path fill="#fff" d="M338-1490V0H158v-1490h180" id="bK"/><g id="am"><use transform="matrix(0.032552083333333336,0,0,0.032552083333333336,0,0)" xlink:href="#bJ"/><use transform="matrix(0.032552083333333336,0,0,0.032552083333333336,41.927083333333336,0)" xlink:href="#aT"/><use transform="matrix(0.032552083333333336,0,0,0.032552083333333336,80.79427083333334,0)" xlink:href="#bf"/><use transform="matrix(0.032552083333333336,0,0,0.032552083333333336,118.88020833333334,0)" xlink:href="#bg"/><use transform="matrix(0.032552083333333336,0,0,0.032552083333333336,158.85416666666669,0)" xlink:href="#aU"/><use transform="matrix(0.032552083333333336,0,0,0.032552083333333336,198.2421875,0)" xlink:href="#bf"/><use transform="matrix(0.032552083333333336,0,0,0.032552083333333336,236.32812500000003,0)" xlink:href="#aS"/><use transform="matrix(0.032552083333333336,0,0,0.032552083333333336,252.47395833333337,0)" xlink:href="#bK"/><use transform="matrix(0.032552083333333336,0,0,0.032552083333333336,268.6197916666667,0)" xlink:href="#aS"/><use transform="matrix(0.032552083333333336,0,0,0.032552083333333336,284.765625,0)" xlink:href="#aQ"/><use transform="matrix(0.032552083333333336,0,0,0.032552083333333336,322.2005208333333,0)" xlink:href="#aR"/><use transform="matrix(0.032552083333333336,0,0,0.032552083333333336,344.01041666666663,0)" xlink:href="#aS"/><use transform="matrix(0.032552083333333336,0,0,0.032552083333333336,360.15624999999994,0)" xlink:href="#bg"/><use transform="matrix(0.032552083333333336,0,0,0.032552083333333336,400.13020833333326,0)" xlink:href="#aU"/></g><path fill="#333" d="M628 22C291 22 81-210 81-554c0-346 210-578 547-578 336 0 547 232 547 578 0 344-211 576-547 576zm0-236c160 0 242-146 242-341 0-197-82-341-242-341S387-753 387-555c0 195 81 341 241 341" id="bL"/><path fill="#333" d="M628 22C291 22 81-210 81-554c0-346 210-578 547-578 265 0 455 142 497 372l-279 52c-25-116-99-188-215-188-160 0-244 139-244 341 0 200 84 341 244 341 116 0 193-74 217-195l279 51C1085-123 896 22 628 22" id="bM"/><path fill="#333" d="M128 0v-1118h300V0H128zm150-1264c-91 0-165-68-165-154 0-85 74-154 165-154 90 0 165 69 165 154 0 86-75 154-165 154" id="bN"/><path fill="#333" d="M683-1118v229H474v562c0 71 29 104 102 104 23 0 73-7 95-13l43 225C647 9 580 16 520 16 296 16 174-96 174-301v-588H20v-229h154v-266h300v266h209" id="bO"/><path fill="#333" d="M633 22C291 22 81-200 81-553c0-345 210-579 537-579 292 0 525 185 525 567v84H378c7 183 109 277 260 277 105 0 184-46 216-132l272 51C1071-99 893 22 633 22zM380-669h474c-15-146-94-237-233-237-143 0-229 99-241 237" id="bP"/><path fill="#333" d="M537 19C279 19 81-185 81-557c0-382 206-575 454-575 190 0 278 113 318 202h10v-560h300V0H868v-179h-15C812-89 719 19 537 19zm92-241c153 0 240-134 240-336 0-203-86-334-240-334-158 0-240 138-240 334 0 197 84 336 240 336" id="bQ"/><g id="an"><use transform="matrix(0.01953125,0,0,0.01953125,0,0)" xlink:href="#aX"/><use transform="matrix(0.01953125,0,0,0.01953125,23.22265625,0)" xlink:href="#aY"/><use transform="matrix(0.01953125,0,0,0.01953125,45.625,0)" xlink:href="#aY"/><use transform="matrix(0.01953125,0,0,0.01953125,68.02734375,0)" xlink:href="#bL"/><use transform="matrix(0.01953125,0,0,0.01953125,92.55859375,0)" xlink:href="#bM"/><use transform="matrix(0.01953125,0,0,0.01953125,116.09375,0)" xlink:href="#bN"/><use transform="matrix(0.01953125,0,0,0.01953125,126.93359375,0)" xlink:href="#aX"/><use transform="matrix(0.01953125,0,0,0.01953125,150.15625,0)" xlink:href="#bO"/><use transform="matrix(0.01953125,0,0,0.01953125,164.4140625,0)" xlink:href="#bP"/><use transform="matrix(0.01953125,0,0,0.01953125,188.2421875,0)" xlink:href="#bQ"/></g><path fill="#333" d="M361 0L31-1118h315c68 295 127 523 188 845 63-317 128-551 199-845h276c71 296 131 525 196 846 57-321 119-552 186-846h319L1378 0h-305c-73-261-148-486-204-771C813-484 740-261 666 0H361" id="bR"/><g id="ao"><use transform="matrix(0.01953125,0,0,0.01953125,0,0)" xlink:href="#bR"/><use transform="matrix(0.01953125,0,0,0.01953125,34.00390625,0)" xlink:href="#bN"/><use transform="matrix(0.01953125,0,0,0.01953125,44.84375,0)" xlink:href="#bO"/><use transform="matrix(0.01953125,0,0,0.01953125,59.58984375,0)" xlink:href="#aW"/></g><path d="M754 19C571 19 479-89 437-179h-14V0H128v-1490h300v560h9c41-89 129-202 319-202 248 0 453 193 453 575 0 372-197 576-455 576zm-92-241c156 0 240-139 240-336 0-196-83-334-240-334-154 0-241 131-241 334 0 202 88 336 241 336" id="bS"/><path d="M633 22C291 22 81-200 81-553c0-345 210-579 537-579 292 0 525 185 525 567v84H378c7 183 109 277 260 277 105 0 184-46 216-132l272 51C1071-99 893 22 633 22zM380-669h474c-15-146-94-237-233-237-143 0-229 99-241 237" id="bT"/><path d="M428-1490V0H128v-1490h300" id="bU"/><path d="M628 22C291 22 81-210 81-554c0-346 210-578 547-578 336 0 547 232 547 578 0 344-211 576-547 576zm0-236c160 0 242-146 242-341 0-197-82-341-242-341S387-753 387-555c0 195 81 341 241 341" id="bV"/><path d="M428-647V0H128v-1118h283l4 231c63-156 176-245 348-245 232 0 384 159 384 421V0H847v-659c0-139-76-222-202-222-128 0-217 86-217 234" id="bW"/><path d="M625 442c-280 0-454-114-503-274l258-72c28 63 97 128 243 128 153 0 246-69 246-216v-206h-23C805-108 717-16 536-16 284-16 81-191 81-561c0-378 208-571 456-571 188 0 280 113 321 202h13v-188h295V-9c0 303-226 451-541 451zm5-686c153 0 240-119 240-319 0-198-86-329-240-329-158 0-241 137-241 329 0 195 85 319 241 319" id="bX"/><path d="M572 22C302 22 117-98 78-306l279-48c29 105 101 156 224 156 114 0 185-48 185-115 0-118-228-130-337-155-215-49-322-150-322-317 0-215 187-347 470-347 265 0 424 116 466 298l-266 47c-24-76-87-130-196-130-98 0-174 46-174 113 0 56 38 95 144 117l201 40c216 44 320 143 320 302 0 220-207 367-500 367" id="bY"/><g id="ap"><use transform="matrix(0.01953125,0,0,0.01953125,0,0)" xlink:href="#bS"/><use transform="matrix(0.01953125,0,0,0.01953125,25.21484375,0)" xlink:href="#bT"/><use transform="matrix(0.01953125,0,0,0.01953125,49.04296875,0)" xlink:href="#bU"/><use transform="matrix(0.01953125,0,0,0.01953125,59.8828125,0)" xlink:href="#bV"/><use transform="matrix(0.01953125,0,0,0.01953125,84.4140625,0)" xlink:href="#bW"/><use transform="matrix(0.01953125,0,0,0.01953125,109.31640625,0)" xlink:href="#bX"/><use transform="matrix(0.01953125,0,0,0.01953125,134.58984375,0)" xlink:href="#bY"/></g><path d="M683-1118v229H474v562c0 71 29 104 102 104 23 0 73-7 95-13l43 225C647 9 580 16 520 16 296 16 174-96 174-301v-588H20v-229h154v-266h300v266h209" id="bZ"/><g id="aq"><use transform="matrix(0.01953125,0,0,0.01953125,0,0)" xlink:href="#bZ"/><use transform="matrix(0.01953125,0,0,0.01953125,14.2578125,0)" xlink:href="#bV"/></g><path fill="#333" d="M135 0v-1490h581c339 0 533 192 533 485 0 204-94 351-264 424L1302 0H964L680-532H440V0H135zm305-779h220c186 0 274-77 274-226 0-150-88-233-275-233H440v459" id="ca"/><path fill="#333" d="M428-647V0H128v-1118h283l4 231c63-156 176-245 348-245 232 0 384 159 384 421V0H847v-659c0-139-76-222-202-222-128 0-217 86-217 234" id="cb"/><path fill="#333" d="M428-1490V0H128v-1490h300" id="cc"/><g id="ar"><use transform="matrix(0.01953125,0,0,0.01953125,0,0)" xlink:href="#ca"/><use transform="matrix(0.01953125,0,0,0.01953125,25.78125,0)" xlink:href="#bP"/><use transform="matrix(0.01953125,0,0,0.01953125,49.609375,0)" xlink:href="#bM"/><use transform="matrix(0.01953125,0,0,0.01953125,73.14453125,0)" xlink:href="#bL"/><use transform="matrix(0.01953125,0,0,0.01953125,97.67578125,0)" xlink:href="#cb"/><use transform="matrix(0.01953125,0,0,0.01953125,122.578125,0)" xlink:href="#bM"/><use transform="matrix(0.01953125,0,0,0.01953125,146.11328125,0)" xlink:href="#bN"/><use transform="matrix(0.01953125,0,0,0.01953125,156.953125,0)" xlink:href="#cc"/><use transform="matrix(0.01953125,0,0,0.01953125,167.79296875,0)" xlink:href="#bP"/><use transform="matrix(0.01953125,0,0,0.01953125,191.62109375,0)" xlink:href="#aY"/></g><g id="as"><use transform="matrix(0.01953125,0,0,0.01953125,0,0)" xlink:href="#bM"/><use transform="matrix(0.01953125,0,0,0.01953125,23.53515625,0)" xlink:href="#bL"/><use transform="matrix(0.01953125,0,0,0.01953125,48.06640625,0)" xlink:href="#cb"/><use transform="matrix(0.01953125,0,0,0.01953125,72.96875,0)" xlink:href="#bO"/><use transform="matrix(0.01953125,0,0,0.01953125,87.8125,0)" xlink:href="#aX"/><use transform="matrix(0.01953125,0,0,0.01953125,111.03515625,0)" xlink:href="#bN"/><use transform="matrix(0.01953125,0,0,0.01953125,121.875,0)" xlink:href="#cb"/><use transform="matrix(0.01953125,0,0,0.01953125,146.77734375,0)" xlink:href="#aY"/></g><g id="at"><use transform="matrix(0.026041666666666668,0,0,0.026041666666666668,0,0)" xlink:href="#aA"/><use transform="matrix(0.026041666666666668,0,0,0.026041666666666668,33.54166666666667,0)" xlink:href="#aB"/><use transform="matrix(0.026041666666666668,0,0,0.026041666666666668,64.63541666666667,0)" xlink:href="#aC"/><use transform="matrix(0.026041666666666668,0,0,0.026041666666666668,97.29166666666667,0)" xlink:href="#aD"/><use transform="matrix(0.026041666666666668,0,0,0.026041666666666668,116.484375,0)" xlink:href="#aB"/><use transform="matrix(0.026041666666666668,0,0,0.026041666666666668,147.578125,0)" xlink:href="#aE"/><use transform="matrix(0.026041666666666668,0,0,0.026041666666666668,175.72916666666666,0)" xlink:href="#aB"/><use transform="matrix(0.026041666666666668,0,0,0.026041666666666668,206.82291666666666,0)" xlink:href="#aF"/><use transform="matrix(0.026041666666666668,0,0,0.026041666666666668,238.3333333333333,0)" xlink:href="#aG"/></g><g id="au"><use transform="matrix(0.026041666666666668,0,0,0.026041666666666668,0,0)" xlink:href="#aK"/><use transform="matrix(0.026041666666666668,0,0,0.026041666666666668,12.916666666666668,0)" xlink:href="#aF"/><use transform="matrix(0.026041666666666668,0,0,0.026041666666666668,44.427083333333336,0)" xlink:href="#aG"/><use transform="matrix(0.026041666666666668,0,0,0.026041666666666668,61.35416666666667,0)" xlink:href="#aB"/><use transform="matrix(0.026041666666666668,0,0,0.026041666666666668,92.44791666666667,0)" xlink:href="#aD"/><use transform="matrix(0.026041666666666668,0,0,0.026041666666666668,112.52604166666667,0)" xlink:href="#aH"/><use transform="matrix(0.026041666666666668,0,0,0.026041666666666668,142.47395833333334,0)" xlink:href="#aJ"/><use transform="matrix(0.026041666666666668,0,0,0.026041666666666668,172.94270833333334,0)" xlink:href="#aG"/><use transform="matrix(0.026041666666666668,0,0,0.026041666666666668,190.390625,0)" xlink:href="#aK"/><use transform="matrix(0.026041666666666668,0,0,0.026041666666666668,203.30729166666666,0)" xlink:href="#aI"/><use transform="matrix(0.026041666666666668,0,0,0.026041666666666668,235.2864583333333,0)" xlink:href="#aF"/><use transform="matrix(0.026041666666666668,0,0,0.026041666666666668,266.796875,0)" xlink:href="#aE"/></g><g id="av"><use transform="matrix(0.026041666666666668,0,0,0.026041666666666668,0,0)" xlink:href="#bx"/><use transform="matrix(0.026041666666666668,0,0,0.026041666666666668,32.65625,0)" xlink:href="#aB"/><use transform="matrix(0.026041666666666668,0,0,0.026041666666666668,63.75,0)" xlink:href="#aG"/><use transform="matrix(0.026041666666666668,0,0,0.026041666666666668,81.97916666666667,0)" xlink:href="#bu"/><use transform="matrix(0.026041666666666668,0,0,0.026041666666666668,124.66145833333334,0)" xlink:href="#aB"/><use transform="matrix(0.026041666666666668,0,0,0.026041666666666668,155.75520833333334,0)" xlink:href="#aB"/><use transform="matrix(0.026041666666666668,0,0,0.026041666666666668,186.84895833333334,0)" xlink:href="#aF"/></g><use transform="matrix(0.026041666666666668,0,0,0.026041666666666668,0,0)" xlink:href="#aH" id="aw"/><g id="ax"><use transform="matrix(0.026041666666666668,0,0,0.026041666666666668,0,0)" xlink:href="#aC"/><use transform="matrix(0.026041666666666668,0,0,0.026041666666666668,33.177083333333336,0)" xlink:href="#aH"/><use transform="matrix(0.026041666666666668,0,0,0.026041666666666668,63.125,0)" xlink:href="#aG"/><use transform="matrix(0.026041666666666668,0,0,0.026041666666666668,80.57291666666667,0)" xlink:href="#aK"/><use transform="matrix(0.026041666666666668,0,0,0.026041666666666668,93.48958333333334,0)" xlink:href="#aB"/><use transform="matrix(0.026041666666666668,0,0,0.026041666666666668,124.58333333333334,0)" xlink:href="#aF"/><use transform="matrix(0.026041666666666668,0,0,0.026041666666666668,156.09375,0)" xlink:href="#aG"/></g><g id="ay"><use transform="matrix(0.026041666666666668,0,0,0.026041666666666668,0,0)" xlink:href="#aC"/><use transform="matrix(0.026041666666666668,0,0,0.026041666666666668,32.65625,0)" xlink:href="#aD"/><use transform="matrix(0.026041666666666668,0,0,0.026041666666666668,51.84895833333333,0)" xlink:href="#aI"/><use transform="matrix(0.026041666666666668,0,0,0.026041666666666668,82.78645833333333,0)" xlink:href="#aL"/><use transform="matrix(0.026041666666666668,0,0,0.026041666666666668,112.76041666666664,0)" xlink:href="#aK"/><use transform="matrix(0.026041666666666668,0,0,0.026041666666666668,125.67708333333334,0)" xlink:href="#bc"/><use transform="matrix(0.026041666666666668,0,0,0.026041666666666668,158.33333333333331,0)" xlink:href="#aB"/><use transform="matrix(0.026041666666666668,0,0,0.026041666666666668,189.42708333333331,0)" xlink:href="#aD"/><use transform="matrix(0.026041666666666668,0,0,0.026041666666666668,206.17187499999997,0)" xlink:href="#bd"/></g><path fill="#fff" d="M180 0v-1490h908v168H370v486h669v168H370v500h727V0H180" id="cd"/><g id="az"><use transform="matrix(0.032552083333333336,0,0,0.032552083333333336,0,0)" xlink:href="#cd"/><use transform="matrix(0.032552083333333336,0,0,0.032552083333333336,40.071614583333336,0)" xlink:href="#aU"/><use transform="matrix(0.032552083333333336,0,0,0.032552083333333336,79.45963541666667,0)" xlink:href="#bf"/><use transform="matrix(0.032552083333333336,0,0,0.032552083333333336,117.54557291666667,0)" xlink:href="#bg"/><use transform="matrix(0.032552083333333336,0,0,0.032552083333333336,157.51953125,0)" xlink:href="#bh"/><use transform="matrix(0.032552083333333336,0,0,0.032552083333333336,196.94010416666669,0)" xlink:href="#aU"/><use transform="matrix(0.032552083333333336,0,0,0.032552083333333336,236.32812500000003,0)" xlink:href="#aR"/><use transform="matrix(0.032552083333333336,0,0,0.032552083333333336,257.4869791666667,0)" xlink:href="#aT"/><use transform="matrix(0.032552083333333336,0,0,0.032552083333333336,296.3541666666667,0)" xlink:href="#bA"/></g></defs></g></svg>